<svg width="771" height="491" viewBox="0 0 771 491" fill="none" xmlns="http://www.w3.org/2000/svg">
<path d="M770.5 0.5H0.5V490.5H770.5V0.5Z" fill="white" stroke="#C4C4C4"/>
<path d="M651.1 30.5H109.9C107.47 30.5 105.5 32.4699 105.5 34.9V136.1C105.5 138.53 107.47 140.5 109.9 140.5H651.1C653.53 140.5 655.5 138.53 655.5 136.1V34.9C655.5 32.4699 653.53 30.5 651.1 30.5Z" fill="#EDEDED" stroke="#767875" stroke-dasharray="3 3"/>
<path d="M116.91 52V48.688H120.21V47.164H116.898V45.064H120.618V43.492H115.242V52H116.91ZM125.05 46.072C124.93 46.06 124.81 46.048 124.678 46.048C124.174 46.048 123.358 46.192 122.998 46.972V46.096H121.45V52H123.046V49.3C123.046 48.028 123.754 47.632 124.57 47.632C124.714 47.632 124.87 47.644 125.05 47.68V46.072ZM128.766 50.728C127.986 50.728 127.266 50.152 127.266 49.048C127.266 47.932 127.986 47.368 128.766 47.368C129.546 47.368 130.266 47.932 130.266 49.048C130.266 50.164 129.546 50.728 128.766 50.728ZM128.766 45.916C127.002 45.916 125.67 47.224 125.67 49.048C125.67 50.86 127.002 52.18 128.766 52.18C130.53 52.18 131.862 50.86 131.862 49.048C131.862 47.224 130.53 45.916 128.766 45.916ZM134.718 48.604C134.718 47.92 135.126 47.38 135.822 47.38C136.59 47.38 136.914 47.896 136.914 48.556V52H138.51V48.28C138.51 46.984 137.838 45.94 136.374 45.94C135.738 45.94 135.03 46.216 134.67 46.828V46.096H133.122V52H134.718V48.604ZM142.097 44.332H140.657V45.16C140.657 45.688 140.369 46.096 139.745 46.096H139.445V47.512H140.513V50.26C140.513 51.4 141.233 52.084 142.385 52.084C142.853 52.084 143.141 52 143.285 51.94V50.62C143.201 50.644 142.985 50.668 142.793 50.668C142.337 50.668 142.097 50.5 142.097 49.984V47.512H143.285V46.096H142.097V44.332ZM145.746 48.376C145.782 47.836 146.238 47.212 147.066 47.212C147.978 47.212 148.362 47.788 148.386 48.376H145.746ZM148.542 49.912C148.35 50.44 147.942 50.812 147.198 50.812C146.406 50.812 145.746 50.248 145.71 49.468H149.934C149.934 49.444 149.958 49.204 149.958 48.976C149.958 47.08 148.866 45.916 147.042 45.916C145.53 45.916 144.138 47.14 144.138 49.024C144.138 51.016 145.566 52.18 147.186 52.18C148.638 52.18 149.574 51.328 149.874 50.308L148.542 49.912ZM152.811 48.604C152.811 47.92 153.219 47.38 153.915 47.38C154.683 47.38 155.007 47.896 155.007 48.556V52H156.603V48.28C156.603 46.984 155.931 45.94 154.467 45.94C153.831 45.94 153.123 46.216 152.763 46.828V46.096H151.215V52H152.811V48.604ZM163.851 43.312H162.279V46.684C162.111 46.372 161.631 45.952 160.611 45.952C158.943 45.952 157.779 47.308 157.779 49.036C157.779 50.824 158.979 52.144 160.659 52.144C161.451 52.144 162.051 51.784 162.315 51.316C162.315 51.592 162.351 51.88 162.375 52H163.899C163.875 51.76 163.851 51.328 163.851 50.932V43.312ZM159.387 49.036C159.387 47.98 160.035 47.38 160.851 47.38C161.667 47.38 162.303 47.968 162.303 49.024C162.303 50.092 161.667 50.716 160.851 50.716C160.011 50.716 159.387 50.092 159.387 49.036Z" fill="black"/>
<path d="M651.1 341.5H109.9C107.47 341.5 105.5 343.47 105.5 345.9V447.1C105.5 449.53 107.47 451.5 109.9 451.5H651.1C653.53 451.5 655.5 449.53 655.5 447.1V345.9C655.5 343.47 653.53 341.5 651.1 341.5Z" fill="#EDEDED" stroke="#767875" stroke-dasharray="3 3"/>
<path d="M116.628 360.464V355.028H117.96C119.352 355.028 120.504 355.904 120.504 357.752C120.504 359.6 119.34 360.464 117.948 360.464H116.628ZM118.008 362C120.432 362 122.22 360.44 122.22 357.752C122.22 355.064 120.444 353.492 118.02 353.492H114.972V362H118.008ZM123.176 360.392C123.176 361.316 123.944 362.168 125.204 362.168C126.08 362.168 126.644 361.76 126.944 361.292C126.944 361.52 126.968 361.844 127.004 362H128.468C128.432 361.796 128.396 361.376 128.396 361.064V358.16C128.396 356.972 127.7 355.916 125.828 355.916C124.244 355.916 123.392 356.936 123.296 357.86L124.712 358.16C124.76 357.644 125.144 357.2 125.84 357.2C126.512 357.2 126.836 357.548 126.836 357.968C126.836 358.172 126.728 358.34 126.392 358.388L124.94 358.604C123.956 358.748 123.176 359.336 123.176 360.392ZM125.54 360.98C125.024 360.98 124.772 360.644 124.772 360.296C124.772 359.84 125.096 359.612 125.504 359.552L126.836 359.348V359.612C126.836 360.656 126.212 360.98 125.54 360.98ZM131.937 354.332H130.497V355.16C130.497 355.688 130.209 356.096 129.585 356.096H129.285V357.512H130.353V360.26C130.353 361.4 131.073 362.084 132.225 362.084C132.693 362.084 132.981 362 133.125 361.94V360.62C133.041 360.644 132.825 360.668 132.633 360.668C132.177 360.668 131.937 360.5 131.937 359.984V357.512H133.125V356.096H131.937V354.332ZM134.156 360.392C134.156 361.316 134.924 362.168 136.184 362.168C137.06 362.168 137.624 361.76 137.924 361.292C137.924 361.52 137.948 361.844 137.984 362H139.448C139.412 361.796 139.376 361.376 139.376 361.064V358.16C139.376 356.972 138.68 355.916 136.808 355.916C135.224 355.916 134.372 356.936 134.276 357.86L135.692 358.16C135.74 357.644 136.124 357.2 136.82 357.2C137.492 357.2 137.816 357.548 137.816 357.968C137.816 358.172 137.708 358.34 137.372 358.388L135.92 358.604C134.936 358.748 134.156 359.336 134.156 360.392ZM136.52 360.98C136.004 360.98 135.752 360.644 135.752 360.296C135.752 359.84 136.076 359.612 136.484 359.552L137.816 359.348V359.612C137.816 360.656 137.192 360.98 136.52 360.98ZM142.533 362V361.28C142.845 361.784 143.469 362.144 144.285 362.144C145.965 362.144 147.069 360.812 147.069 359.024C147.069 357.272 146.073 355.94 144.345 355.94C143.469 355.94 142.821 356.324 142.557 356.744V353.312H140.985V362H142.533ZM145.473 359.036C145.473 360.116 144.825 360.716 144.009 360.716C143.205 360.716 142.533 360.104 142.533 359.036C142.533 357.956 143.205 357.368 144.009 357.368C144.825 357.368 145.473 357.956 145.473 359.036ZM147.972 360.392C147.972 361.316 148.74 362.168 150 362.168C150.876 362.168 151.44 361.76 151.74 361.292C151.74 361.52 151.764 361.844 151.8 362H153.264C153.228 361.796 153.192 361.376 153.192 361.064V358.16C153.192 356.972 152.496 355.916 150.624 355.916C149.04 355.916 148.188 356.936 148.092 357.86L149.508 358.16C149.556 357.644 149.94 357.2 150.636 357.2C151.308 357.2 151.632 357.548 151.632 357.968C151.632 358.172 151.524 358.34 151.188 358.388L149.736 358.604C148.752 358.748 147.972 359.336 147.972 360.392ZM150.336 360.98C149.82 360.98 149.568 360.644 149.568 360.296C149.568 359.84 149.892 359.612 150.3 359.552L151.632 359.348V359.612C151.632 360.656 151.008 360.98 150.336 360.98ZM154.297 360.356C154.369 361.028 154.981 362.18 156.757 362.18C158.305 362.18 159.049 361.196 159.049 360.236C159.049 359.372 158.461 358.664 157.297 358.424L156.457 358.244C156.133 358.184 155.917 358.004 155.917 357.716C155.917 357.38 156.253 357.128 156.673 357.128C157.345 357.128 157.597 357.572 157.645 357.92L158.977 357.62C158.905 356.984 158.341 355.916 156.661 355.916C155.389 355.916 154.453 356.792 154.453 357.848C154.453 358.676 154.969 359.36 156.109 359.612L156.889 359.792C157.345 359.888 157.525 360.104 157.525 360.368C157.525 360.68 157.273 360.956 156.745 360.956C156.049 360.956 155.701 360.524 155.665 360.056L154.297 360.356ZM161.473 358.376C161.509 357.836 161.965 357.212 162.793 357.212C163.705 357.212 164.089 357.788 164.113 358.376H161.473ZM164.269 359.912C164.077 360.44 163.669 360.812 162.925 360.812C162.133 360.812 161.473 360.248 161.437 359.468H165.661C165.661 359.444 165.685 359.204 165.685 358.976C165.685 357.08 164.593 355.916 162.769 355.916C161.257 355.916 159.865 357.14 159.865 359.024C159.865 361.016 161.293 362.18 162.913 362.18C164.365 362.18 165.301 361.328 165.601 360.308L164.269 359.912Z" fill="black"/>
<path d="M651.1 185H109.9C107.47 185 105.5 186.97 105.5 189.4V290.6C105.5 293.03 107.47 295 109.9 295H651.1C653.53 295 655.5 293.03 655.5 290.6V189.4C655.5 186.97 653.53 185 651.1 185Z" fill="#EDEDED" stroke="#767875" stroke-dasharray="3 3"/>
<path d="M120.744 205.5H122.544L119.304 196.992H117.384L114.12 205.5H115.872L116.58 203.556H120.036L120.744 205.5ZM118.308 198.828L119.484 202.044H117.132L118.308 198.828ZM125.3 200.868V198.432H126.608C127.436 198.432 127.94 198.9 127.94 199.656C127.94 200.388 127.436 200.868 126.608 200.868H125.3ZM126.812 202.296C128.492 202.296 129.608 201.192 129.608 199.644C129.608 198.108 128.492 196.992 126.812 196.992H123.632V205.5H125.288V202.296H126.812ZM132.554 205.5V196.992H130.874V205.5H132.554Z" fill="black"/>
<path d="M283.7 63H137.3C136.306 63 135.5 63.8059 135.5 64.8V106.2C135.5 107.194 136.306 108 137.3 108H283.7C284.694 108 285.5 107.194 285.5 106.2V64.8C285.5 63.8059 284.694 63 283.7 63Z" fill="#FFF9F2" stroke="#D79B00" stroke-dasharray="3 3"/>
<path d="M200.207 82.18C202.595 82.18 203.819 80.596 204.143 79.288L202.595 78.82C202.367 79.612 201.659 80.56 200.207 80.56C198.839 80.56 197.567 79.564 197.567 77.752C197.567 75.82 198.911 74.908 200.183 74.908C201.659 74.908 202.319 75.808 202.523 76.624L204.083 76.132C203.747 74.752 202.535 73.312 200.183 73.312C197.903 73.312 195.851 75.04 195.851 77.752C195.851 80.464 197.831 82.18 200.207 82.18ZM208.893 76.072C208.773 76.06 208.653 76.048 208.521 76.048C208.017 76.048 207.201 76.192 206.841 76.972V76.096H205.293V82H206.889V79.3C206.889 78.028 207.597 77.632 208.413 77.632C208.557 77.632 208.713 77.644 208.893 77.68V76.072ZM211.121 78.376C211.157 77.836 211.613 77.212 212.441 77.212C213.353 77.212 213.737 77.788 213.761 78.376H211.121ZM213.917 79.912C213.725 80.44 213.317 80.812 212.573 80.812C211.781 80.812 211.121 80.248 211.085 79.468H215.309C215.309 79.444 215.333 79.204 215.333 78.976C215.333 77.08 214.241 75.916 212.417 75.916C210.905 75.916 209.513 77.14 209.513 79.024C209.513 81.016 210.941 82.18 212.561 82.18C214.013 82.18 214.949 81.328 215.249 80.308L213.917 79.912ZM219.845 76.096L218.561 79.888L217.469 76.096H215.789L217.673 82H219.293L220.649 77.968L222.029 82H223.625L225.473 76.096H223.889L222.797 79.9L221.525 76.096H219.845Z" fill="black"/>
<path d="M160.621 96H162.469L160.645 92.52C161.761 92.196 162.457 91.296 162.457 90.108C162.457 88.632 161.401 87.492 159.745 87.492H156.421V96H158.089V92.724H158.953L160.621 96ZM158.089 91.296V88.932H159.433C160.273 88.932 160.765 89.4 160.765 90.12C160.765 90.816 160.273 91.296 159.433 91.296H158.089ZM164.801 92.376C164.837 91.836 165.293 91.212 166.121 91.212C167.033 91.212 167.417 91.788 167.441 92.376H164.801ZM167.597 93.912C167.405 94.44 166.997 94.812 166.253 94.812C165.461 94.812 164.801 94.248 164.765 93.468H168.989C168.989 93.444 169.013 93.204 169.013 92.976C169.013 91.08 167.921 89.916 166.097 89.916C164.585 89.916 163.193 91.14 163.193 93.024C163.193 95.016 164.621 96.18 166.241 96.18C167.693 96.18 168.629 95.328 168.929 94.308L167.597 93.912ZM169.91 94.392C169.91 95.316 170.678 96.168 171.938 96.168C172.814 96.168 173.378 95.76 173.678 95.292C173.678 95.52 173.702 95.844 173.738 96H175.202C175.166 95.796 175.13 95.376 175.13 95.064V92.16C175.13 90.972 174.434 89.916 172.562 89.916C170.978 89.916 170.126 90.936 170.03 91.86L171.446 92.16C171.494 91.644 171.878 91.2 172.574 91.2C173.246 91.2 173.57 91.548 173.57 91.968C173.57 92.172 173.462 92.34 173.126 92.388L171.674 92.604C170.69 92.748 169.91 93.336 169.91 94.392ZM172.274 94.98C171.758 94.98 171.506 94.644 171.506 94.296C171.506 93.84 171.83 93.612 172.238 93.552L173.57 93.348V93.612C173.57 94.656 172.946 94.98 172.274 94.98ZM179.367 91.392C180.159 91.392 180.531 91.896 180.675 92.388L182.103 91.908C181.851 90.912 180.939 89.916 179.331 89.916C177.615 89.916 176.271 91.224 176.271 93.048C176.271 94.86 177.639 96.18 179.379 96.18C180.951 96.18 181.875 95.172 182.139 94.188L180.735 93.72C180.603 94.176 180.195 94.716 179.379 94.716C178.563 94.716 177.867 94.116 177.867 93.048C177.867 91.98 178.551 91.392 179.367 91.392ZM185.281 88.332H183.841V89.16C183.841 89.688 183.553 90.096 182.929 90.096H182.629V91.512H183.697V94.26C183.697 95.4 184.417 96.084 185.569 96.084C186.037 96.084 186.325 96 186.469 95.94V94.62C186.385 94.644 186.169 94.668 185.977 94.668C185.521 94.668 185.281 94.5 185.281 93.984V91.512H186.469V90.096H185.281V88.332ZM198.134 96V87.492H196.478V93.12L192.938 87.492H190.874V96H192.53V89.964L196.394 96H198.134ZM199.57 94.392C199.57 95.316 200.338 96.168 201.598 96.168C202.474 96.168 203.038 95.76 203.338 95.292C203.338 95.52 203.362 95.844 203.398 96H204.862C204.826 95.796 204.79 95.376 204.79 95.064V92.16C204.79 90.972 204.094 89.916 202.222 89.916C200.638 89.916 199.786 90.936 199.69 91.86L201.106 92.16C201.154 91.644 201.538 91.2 202.234 91.2C202.906 91.2 203.23 91.548 203.23 91.968C203.23 92.172 203.122 92.34 202.786 92.388L201.334 92.604C200.35 92.748 199.57 93.336 199.57 94.392ZM201.934 94.98C201.418 94.98 201.166 94.644 201.166 94.296C201.166 93.84 201.49 93.612 201.898 93.552L203.23 93.348V93.612C203.23 94.656 202.606 94.98 201.934 94.98ZM208.332 88.332H206.892V89.16C206.892 89.688 206.604 90.096 205.98 90.096H205.68V91.512H206.748V94.26C206.748 95.4 207.468 96.084 208.62 96.084C209.088 96.084 209.376 96 209.52 95.94V94.62C209.436 94.644 209.22 94.668 209.028 94.668C208.572 94.668 208.332 94.5 208.332 93.984V91.512H209.52V90.096H208.332V88.332ZM212.471 96V90.096H210.875V96H212.471ZM210.683 88.164C210.683 88.692 211.127 89.136 211.667 89.136C212.219 89.136 212.651 88.692 212.651 88.164C212.651 87.612 212.219 87.168 211.667 87.168C211.127 87.168 210.683 87.612 210.683 88.164ZM219.748 90.096H218.068L216.664 94.056L215.2 90.096H213.448L215.86 96H217.456L219.748 90.096ZM221.707 92.376C221.743 91.836 222.199 91.212 223.027 91.212C223.939 91.212 224.323 91.788 224.347 92.376H221.707ZM224.503 93.912C224.311 94.44 223.903 94.812 223.159 94.812C222.367 94.812 221.707 94.248 221.671 93.468H225.895C225.895 93.444 225.919 93.204 225.919 92.976C225.919 91.08 224.827 89.916 223.003 89.916C221.491 89.916 220.099 91.14 220.099 93.024C220.099 95.016 221.527 96.18 223.147 96.18C224.599 96.18 225.535 95.328 225.835 94.308L224.503 93.912ZM229.805 92.136C229.805 94.884 230.921 96.732 232.325 98.1L233.249 97.26C231.965 95.892 231.149 94.296 231.149 92.136C231.149 89.976 231.965 88.392 233.249 87.024L232.325 86.172C230.921 87.552 229.805 89.388 229.805 92.136ZM239.55 96V94.44H235.878V92.472H239.202V90.996H235.878V89.052H239.55V87.492H234.222V96H239.55ZM240.378 96H242.178C242.382 95.676 243.174 94.512 243.39 94.188L244.626 96H246.498L244.362 92.988L246.426 90.096H244.614L243.45 91.848C243.246 91.524 242.478 90.42 242.274 90.096H240.378L242.478 93.036L240.378 96ZM249.069 98.28V95.424C249.357 95.82 249.957 96.144 250.773 96.144C252.441 96.144 253.557 94.824 253.557 93.036C253.557 91.284 252.561 89.964 250.833 89.964C249.945 89.964 249.285 90.36 249.021 90.816V90.096H247.473V98.28H249.069ZM251.985 93.048C251.985 94.104 251.337 94.716 250.521 94.716C249.705 94.716 249.045 94.092 249.045 93.048C249.045 92.004 249.705 91.392 250.521 91.392C251.337 91.392 251.985 92.004 251.985 93.048ZM257.473 94.728C256.693 94.728 255.973 94.152 255.973 93.048C255.973 91.932 256.693 91.368 257.473 91.368C258.253 91.368 258.973 91.932 258.973 93.048C258.973 94.164 258.253 94.728 257.473 94.728ZM257.473 89.916C255.709 89.916 254.377 91.224 254.377 93.048C254.377 94.86 255.709 96.18 257.473 96.18C259.237 96.18 260.569 94.86 260.569 93.048C260.569 91.224 259.237 89.916 257.473 89.916ZM264.034 92.136C264.034 89.388 262.918 87.552 261.514 86.172L260.59 87.024C261.874 88.392 262.69 89.976 262.69 92.136C262.69 94.296 261.874 95.892 260.59 97.26L261.514 98.1C262.918 96.732 264.034 94.884 264.034 92.136Z" fill="black"/>
<path d="M453.7 63H307.3C306.306 63 305.5 63.8059 305.5 64.8V106.2C305.5 107.194 306.306 108 307.3 108H453.7C454.694 108 455.5 107.194 455.5 106.2V64.8C455.5 63.8059 454.694 63 453.7 63Z" fill="#FFF9F2" stroke="#D79B00" stroke-dasharray="3 3"/>
<path d="M357.873 82.18C360.261 82.18 361.485 80.596 361.809 79.288L360.261 78.82C360.033 79.612 359.325 80.56 357.873 80.56C356.505 80.56 355.233 79.564 355.233 77.752C355.233 75.82 356.577 74.908 357.849 74.908C359.325 74.908 359.985 75.808 360.189 76.624L361.749 76.132C361.413 74.752 360.201 73.312 357.849 73.312C355.569 73.312 353.517 75.04 353.517 77.752C353.517 80.464 355.497 82.18 357.873 82.18ZM366.695 82H368.219C368.195 81.796 368.159 81.388 368.159 80.932V76.096H366.563V79.528C366.563 80.212 366.155 80.692 365.447 80.692C364.703 80.692 364.367 80.164 364.367 79.504V76.096H362.771V79.828C362.771 81.112 363.587 82.156 365.015 82.156C365.639 82.156 366.323 81.916 366.647 81.364C366.647 81.604 366.671 81.88 366.695 82ZM369.358 80.356C369.43 81.028 370.042 82.18 371.818 82.18C373.366 82.18 374.11 81.196 374.11 80.236C374.11 79.372 373.522 78.664 372.358 78.424L371.518 78.244C371.194 78.184 370.978 78.004 370.978 77.716C370.978 77.38 371.314 77.128 371.734 77.128C372.406 77.128 372.658 77.572 372.706 77.92L374.038 77.62C373.966 76.984 373.402 75.916 371.722 75.916C370.45 75.916 369.514 76.792 369.514 77.848C369.514 78.676 370.03 79.36 371.17 79.612L371.95 79.792C372.406 79.888 372.586 80.104 372.586 80.368C372.586 80.68 372.334 80.956 371.806 80.956C371.11 80.956 370.762 80.524 370.726 80.056L369.358 80.356ZM377.361 74.332H375.921V75.16C375.921 75.688 375.633 76.096 375.009 76.096H374.709V77.512H375.777V80.26C375.777 81.4 376.497 82.084 377.649 82.084C378.117 82.084 378.405 82 378.549 81.94V80.62C378.465 80.644 378.249 80.668 378.057 80.668C377.601 80.668 377.361 80.5 377.361 79.984V77.512H378.549V76.096H377.361V74.332ZM382.498 80.728C381.718 80.728 380.998 80.152 380.998 79.048C380.998 77.932 381.718 77.368 382.498 77.368C383.278 77.368 383.998 77.932 383.998 79.048C383.998 80.164 383.278 80.728 382.498 80.728ZM382.498 75.916C380.734 75.916 379.402 77.224 379.402 79.048C379.402 80.86 380.734 82.18 382.498 82.18C384.262 82.18 385.594 80.86 385.594 79.048C385.594 77.224 384.262 75.916 382.498 75.916ZM388.45 82V78.544C388.45 77.896 388.858 77.38 389.554 77.38C390.274 77.38 390.598 77.86 390.598 78.496V82H392.182V78.544C392.182 77.908 392.59 77.38 393.274 77.38C394.006 77.38 394.318 77.86 394.318 78.496V82H395.866V78.172C395.866 76.588 394.822 75.928 393.73 75.928C392.95 75.928 392.326 76.192 391.858 76.912C391.558 76.276 390.91 75.928 390.106 75.928C389.458 75.928 388.702 76.24 388.378 76.816V76.096H386.854V82H388.45ZM398.647 78.376C398.683 77.836 399.139 77.212 399.967 77.212C400.879 77.212 401.263 77.788 401.287 78.376H398.647ZM401.443 79.912C401.251 80.44 400.843 80.812 400.099 80.812C399.307 80.812 398.647 80.248 398.611 79.468H402.835C402.835 79.444 402.859 79.204 402.859 78.976C402.859 77.08 401.767 75.916 399.943 75.916C398.431 75.916 397.039 77.14 397.039 79.024C397.039 81.016 398.467 82.18 400.087 82.18C401.539 82.18 402.475 81.328 402.775 80.308L401.443 79.912ZM407.716 76.072C407.596 76.06 407.476 76.048 407.344 76.048C406.84 76.048 406.024 76.192 405.664 76.972V76.096H404.116V82H405.712V79.3C405.712 78.028 406.42 77.632 407.236 77.632C407.38 77.632 407.536 77.644 407.716 77.68V76.072Z" fill="black"/>
<path d="M330.621 96H332.469L330.645 92.52C331.761 92.196 332.457 91.296 332.457 90.108C332.457 88.632 331.401 87.492 329.745 87.492H326.421V96H328.089V92.724H328.953L330.621 96ZM328.089 91.296V88.932H329.433C330.273 88.932 330.765 89.4 330.765 90.12C330.765 90.816 330.273 91.296 329.433 91.296H328.089ZM334.801 92.376C334.837 91.836 335.293 91.212 336.121 91.212C337.033 91.212 337.417 91.788 337.441 92.376H334.801ZM337.597 93.912C337.405 94.44 336.997 94.812 336.253 94.812C335.461 94.812 334.801 94.248 334.765 93.468H338.989C338.989 93.444 339.013 93.204 339.013 92.976C339.013 91.08 337.921 89.916 336.097 89.916C334.585 89.916 333.193 91.14 333.193 93.024C333.193 95.016 334.621 96.18 336.241 96.18C337.693 96.18 338.629 95.328 338.929 94.308L337.597 93.912ZM339.91 94.392C339.91 95.316 340.678 96.168 341.938 96.168C342.814 96.168 343.378 95.76 343.678 95.292C343.678 95.52 343.702 95.844 343.738 96H345.202C345.166 95.796 345.13 95.376 345.13 95.064V92.16C345.13 90.972 344.434 89.916 342.562 89.916C340.978 89.916 340.126 90.936 340.03 91.86L341.446 92.16C341.494 91.644 341.878 91.2 342.574 91.2C343.246 91.2 343.57 91.548 343.57 91.968C343.57 92.172 343.462 92.34 343.126 92.388L341.674 92.604C340.69 92.748 339.91 93.336 339.91 94.392ZM342.274 94.98C341.758 94.98 341.506 94.644 341.506 94.296C341.506 93.84 341.83 93.612 342.238 93.552L343.57 93.348V93.612C343.57 94.656 342.946 94.98 342.274 94.98ZM349.367 91.392C350.159 91.392 350.531 91.896 350.675 92.388L352.103 91.908C351.851 90.912 350.939 89.916 349.331 89.916C347.615 89.916 346.271 91.224 346.271 93.048C346.271 94.86 347.639 96.18 349.379 96.18C350.951 96.18 351.875 95.172 352.139 94.188L350.735 93.72C350.603 94.176 350.195 94.716 349.379 94.716C348.563 94.716 347.867 94.116 347.867 93.048C347.867 91.98 348.551 91.392 349.367 91.392ZM355.281 88.332H353.841V89.16C353.841 89.688 353.553 90.096 352.929 90.096H352.629V91.512H353.697V94.26C353.697 95.4 354.417 96.084 355.569 96.084C356.037 96.084 356.325 96 356.469 95.94V94.62C356.385 94.644 356.169 94.668 355.977 94.668C355.521 94.668 355.281 94.5 355.281 93.984V91.512H356.469V90.096H355.281V88.332ZM368.134 96V87.492H366.478V93.12L362.938 87.492H360.874V96H362.53V89.964L366.394 96H368.134ZM369.57 94.392C369.57 95.316 370.338 96.168 371.598 96.168C372.474 96.168 373.038 95.76 373.338 95.292C373.338 95.52 373.362 95.844 373.398 96H374.862C374.826 95.796 374.79 95.376 374.79 95.064V92.16C374.79 90.972 374.094 89.916 372.222 89.916C370.638 89.916 369.786 90.936 369.69 91.86L371.106 92.16C371.154 91.644 371.538 91.2 372.234 91.2C372.906 91.2 373.23 91.548 373.23 91.968C373.23 92.172 373.122 92.34 372.786 92.388L371.334 92.604C370.35 92.748 369.57 93.336 369.57 94.392ZM371.934 94.98C371.418 94.98 371.166 94.644 371.166 94.296C371.166 93.84 371.49 93.612 371.898 93.552L373.23 93.348V93.612C373.23 94.656 372.606 94.98 371.934 94.98ZM378.332 88.332H376.892V89.16C376.892 89.688 376.604 90.096 375.98 90.096H375.68V91.512H376.748V94.26C376.748 95.4 377.468 96.084 378.62 96.084C379.088 96.084 379.376 96 379.52 95.94V94.62C379.436 94.644 379.22 94.668 379.028 94.668C378.572 94.668 378.332 94.5 378.332 93.984V91.512H379.52V90.096H378.332V88.332ZM382.471 96V90.096H380.875V96H382.471ZM380.683 88.164C380.683 88.692 381.127 89.136 381.667 89.136C382.219 89.136 382.651 88.692 382.651 88.164C382.651 87.612 382.219 87.168 381.667 87.168C381.127 87.168 380.683 87.612 380.683 88.164ZM389.748 90.096H388.068L386.664 94.056L385.2 90.096H383.448L385.86 96H387.456L389.748 90.096ZM391.707 92.376C391.743 91.836 392.199 91.212 393.027 91.212C393.939 91.212 394.323 91.788 394.347 92.376H391.707ZM394.503 93.912C394.311 94.44 393.903 94.812 393.159 94.812C392.367 94.812 391.707 94.248 391.671 93.468H395.895C395.895 93.444 395.919 93.204 395.919 92.976C395.919 91.08 394.827 89.916 393.003 89.916C391.491 89.916 390.099 91.14 390.099 93.024C390.099 95.016 391.527 96.18 393.147 96.18C394.599 96.18 395.535 95.328 395.835 94.308L394.503 93.912ZM399.805 92.136C399.805 94.884 400.921 96.732 402.325 98.1L403.249 97.26C401.965 95.892 401.149 94.296 401.149 92.136C401.149 89.976 401.965 88.392 403.249 87.024L402.325 86.172C400.921 87.552 399.805 89.388 399.805 92.136ZM409.55 96V94.44H405.878V92.472H409.202V90.996H405.878V89.052H409.55V87.492H404.222V96H409.55ZM410.378 96H412.178C412.382 95.676 413.174 94.512 413.39 94.188L414.626 96H416.498L414.362 92.988L416.426 90.096H414.614L413.45 91.848C413.246 91.524 412.478 90.42 412.274 90.096H410.378L412.478 93.036L410.378 96ZM419.069 98.28V95.424C419.357 95.82 419.957 96.144 420.773 96.144C422.441 96.144 423.557 94.824 423.557 93.036C423.557 91.284 422.561 89.964 420.833 89.964C419.945 89.964 419.285 90.36 419.021 90.816V90.096H417.473V98.28H419.069ZM421.985 93.048C421.985 94.104 421.337 94.716 420.521 94.716C419.705 94.716 419.045 94.092 419.045 93.048C419.045 92.004 419.705 91.392 420.521 91.392C421.337 91.392 421.985 92.004 421.985 93.048ZM427.473 94.728C426.693 94.728 425.973 94.152 425.973 93.048C425.973 91.932 426.693 91.368 427.473 91.368C428.253 91.368 428.973 91.932 428.973 93.048C428.973 94.164 428.253 94.728 427.473 94.728ZM427.473 89.916C425.709 89.916 424.377 91.224 424.377 93.048C424.377 94.86 425.709 96.18 427.473 96.18C429.237 96.18 430.569 94.86 430.569 93.048C430.569 91.224 429.237 89.916 427.473 89.916ZM434.034 92.136C434.034 89.388 432.918 87.552 431.514 86.172L430.59 87.024C431.874 88.392 432.69 89.976 432.69 92.136C432.69 94.296 431.874 95.892 430.59 97.26L431.514 98.1C432.918 96.732 434.034 94.884 434.034 92.136Z" fill="black"/>
<path d="M623.7 63H477.3C476.306 63 475.5 63.8059 475.5 64.8V106.2C475.5 107.194 476.306 108 477.3 108H623.7C624.694 108 625.5 107.194 625.5 106.2V64.8C625.5 63.8059 624.694 63 623.7 63Z" fill="#FFF9F2" stroke="#D79B00" stroke-dasharray="3 3"/>
<path d="M549.176 82V73.492H547.508V76.912H543.8V73.492H542.144V82H543.8V78.472H547.508V82H549.176ZM550.616 77.752C550.616 80.488 552.68 82.18 554.984 82.18C555.776 82.18 556.544 81.976 557.204 81.604L558.248 82.756L559.34 81.82L558.32 80.692C558.968 79.948 559.364 78.952 559.364 77.752C559.364 75.004 557.3 73.312 554.984 73.312C552.68 73.312 550.616 75.004 550.616 77.752ZM552.332 77.74C552.332 75.82 553.676 74.908 554.984 74.908C556.304 74.908 557.648 75.82 557.648 77.74C557.648 78.436 557.468 79 557.18 79.432L555.848 77.944L554.744 78.892L556.076 80.356C555.74 80.5 555.356 80.572 554.984 80.572C553.676 80.572 552.332 79.66 552.332 77.74Z" fill="black"/>
<path d="M514.229 96H516.077L514.253 92.52C515.369 92.196 516.065 91.296 516.065 90.108C516.065 88.632 515.009 87.492 513.353 87.492H510.029V96H511.697V92.724H512.561L514.229 96ZM511.697 91.296V88.932H513.041C513.881 88.932 514.373 89.4 514.373 90.12C514.373 90.816 513.881 91.296 513.041 91.296H511.697ZM518.409 92.376C518.445 91.836 518.901 91.212 519.729 91.212C520.641 91.212 521.025 91.788 521.049 92.376H518.409ZM521.205 93.912C521.013 94.44 520.605 94.812 519.861 94.812C519.069 94.812 518.409 94.248 518.373 93.468H522.597C522.597 93.444 522.621 93.204 522.621 92.976C522.621 91.08 521.529 89.916 519.705 89.916C518.193 89.916 516.801 91.14 516.801 93.024C516.801 95.016 518.229 96.18 519.849 96.18C521.301 96.18 522.237 95.328 522.537 94.308L521.205 93.912ZM523.517 94.392C523.517 95.316 524.285 96.168 525.545 96.168C526.421 96.168 526.985 95.76 527.285 95.292C527.285 95.52 527.309 95.844 527.345 96H528.809C528.773 95.796 528.737 95.376 528.737 95.064V92.16C528.737 90.972 528.041 89.916 526.169 89.916C524.585 89.916 523.733 90.936 523.637 91.86L525.053 92.16C525.101 91.644 525.485 91.2 526.181 91.2C526.853 91.2 527.177 91.548 527.177 91.968C527.177 92.172 527.069 92.34 526.733 92.388L525.281 92.604C524.297 92.748 523.517 93.336 523.517 94.392ZM525.881 94.98C525.365 94.98 525.113 94.644 525.113 94.296C525.113 93.84 525.437 93.612 525.845 93.552L527.177 93.348V93.612C527.177 94.656 526.553 94.98 525.881 94.98ZM532.975 91.392C533.767 91.392 534.139 91.896 534.283 92.388L535.711 91.908C535.459 90.912 534.547 89.916 532.939 89.916C531.223 89.916 529.879 91.224 529.879 93.048C529.879 94.86 531.247 96.18 532.987 96.18C534.559 96.18 535.483 95.172 535.747 94.188L534.343 93.72C534.211 94.176 533.803 94.716 532.987 94.716C532.171 94.716 531.475 94.116 531.475 93.048C531.475 91.98 532.159 91.392 532.975 91.392ZM538.888 88.332H537.448V89.16C537.448 89.688 537.16 90.096 536.536 90.096H536.236V91.512H537.304V94.26C537.304 95.4 538.024 96.084 539.176 96.084C539.644 96.084 539.932 96 540.076 95.94V94.62C539.992 94.644 539.776 94.668 539.584 94.668C539.128 94.668 538.888 94.5 538.888 93.984V91.512H540.076V90.096H538.888V88.332ZM544.026 92.136C544.026 94.884 545.142 96.732 546.546 98.1L547.47 97.26C546.186 95.892 545.37 94.296 545.37 92.136C545.37 89.976 546.186 88.392 547.47 87.024L546.546 86.172C545.142 87.552 544.026 89.388 544.026 92.136ZM555.703 96V87.492H554.047V93.12L550.507 87.492H548.443V96H550.099V89.964L553.963 96H555.703ZM558.651 92.376C558.687 91.836 559.143 91.212 559.971 91.212C560.883 91.212 561.267 91.788 561.291 92.376H558.651ZM561.447 93.912C561.255 94.44 560.847 94.812 560.103 94.812C559.311 94.812 558.651 94.248 558.615 93.468H562.839C562.839 93.444 562.863 93.204 562.863 92.976C562.863 91.08 561.771 89.916 559.947 89.916C558.435 89.916 557.043 91.14 557.043 93.024C557.043 95.016 558.471 96.18 560.091 96.18C561.543 96.18 562.479 95.328 562.779 94.308L561.447 93.912ZM563.318 96H565.118C565.322 95.676 566.114 94.512 566.33 94.188L567.566 96H569.438L567.302 92.988L569.366 90.096H567.554L566.39 91.848C566.186 91.524 565.418 90.42 565.214 90.096H563.318L565.418 93.036L563.318 96ZM572.474 88.332H571.034V89.16C571.034 89.688 570.746 90.096 570.122 90.096H569.822V91.512H570.89V94.26C570.89 95.4 571.61 96.084 572.762 96.084C573.23 96.084 573.518 96 573.662 95.94V94.62C573.578 94.644 573.362 94.668 573.17 94.668C572.714 94.668 572.474 94.5 572.474 93.984V91.512H573.662V90.096H572.474V88.332ZM574.371 93.408C574.371 95.076 575.475 96.18 577.155 96.18C578.811 96.18 579.927 94.908 579.927 93.372V87.492H578.271V93.372C578.271 94.116 577.839 94.608 577.143 94.608C576.471 94.608 575.979 94.212 575.967 93.336V92.556L574.371 92.844V93.408ZM587.507 89.52C587.315 88.56 586.523 87.312 584.459 87.312C582.851 87.312 581.495 88.464 581.495 89.976C581.495 91.26 582.371 92.136 583.727 92.412L584.915 92.652C585.575 92.784 585.947 93.168 585.947 93.66C585.947 94.26 585.455 94.704 584.567 94.704C583.367 94.704 582.779 93.948 582.707 93.108L581.171 93.516C581.303 94.728 582.299 96.18 584.555 96.18C586.535 96.18 587.627 94.86 587.627 93.552C587.627 92.352 586.799 91.344 585.251 91.044L584.063 90.816C583.439 90.696 583.139 90.324 583.139 89.856C583.139 89.292 583.667 88.776 584.471 88.776C585.551 88.776 585.935 89.508 586.019 89.976L587.507 89.52ZM591.426 92.136C591.426 89.388 590.31 87.552 588.906 86.172L587.982 87.024C589.266 88.392 590.082 89.976 590.082 92.136C590.082 94.296 589.266 95.892 587.982 97.26L588.906 98.1C590.31 96.732 591.426 94.884 591.426 92.136Z" fill="black"/>
<path d="M453.7 374H307.3C306.306 374 305.5 374.806 305.5 375.8V417.2C305.5 418.194 306.306 419 307.3 419H453.7C454.694 419 455.5 418.194 455.5 417.2V375.8C455.5 374.806 454.694 374 453.7 374Z" fill="#FFF9F2" stroke="#D79B00" stroke-dasharray="3 3"/>
<path d="M358.699 395.368V392.932H360.007C360.835 392.932 361.339 393.4 361.339 394.156C361.339 394.888 360.835 395.368 360.007 395.368H358.699ZM360.211 396.796C361.891 396.796 363.007 395.692 363.007 394.144C363.007 392.608 361.891 391.492 360.211 391.492H357.031V400H358.687V396.796H360.211ZM366.465 398.728C365.685 398.728 364.965 398.152 364.965 397.048C364.965 395.932 365.685 395.368 366.465 395.368C367.245 395.368 367.965 395.932 367.965 397.048C367.965 398.164 367.245 398.728 366.465 398.728ZM366.465 393.916C364.701 393.916 363.369 395.224 363.369 397.048C363.369 398.86 364.701 400.18 366.465 400.18C368.229 400.18 369.561 398.86 369.561 397.048C369.561 395.224 368.229 393.916 366.465 393.916ZM370.317 398.356C370.389 399.028 371.001 400.18 372.777 400.18C374.325 400.18 375.069 399.196 375.069 398.236C375.069 397.372 374.481 396.664 373.317 396.424L372.477 396.244C372.153 396.184 371.937 396.004 371.937 395.716C371.937 395.38 372.273 395.128 372.693 395.128C373.365 395.128 373.617 395.572 373.665 395.92L374.997 395.62C374.925 394.984 374.361 393.916 372.681 393.916C371.409 393.916 370.473 394.792 370.473 395.848C370.473 396.676 370.989 397.36 372.129 397.612L372.909 397.792C373.365 397.888 373.545 398.104 373.545 398.368C373.545 398.68 373.293 398.956 372.765 398.956C372.069 398.956 371.721 398.524 371.685 398.056L370.317 398.356ZM378.32 392.332H376.88V393.16C376.88 393.688 376.592 394.096 375.968 394.096H375.668V395.512H376.736V398.26C376.736 399.4 377.456 400.084 378.608 400.084C379.076 400.084 379.364 400 379.508 399.94V398.62C379.424 398.644 379.208 398.668 379.016 398.668C378.56 398.668 378.32 398.5 378.32 397.984V395.512H379.508V394.096H378.32V392.332ZM380.385 400.324C380.553 401.452 381.633 402.46 383.253 402.46C385.473 402.46 386.349 400.984 386.349 399.364V394.096H384.813V394.792C384.609 394.396 384.069 393.988 383.133 393.988C381.513 393.988 380.385 395.308 380.385 396.868C380.385 398.524 381.561 399.736 383.133 399.736C383.985 399.736 384.537 399.364 384.777 398.98V399.412C384.777 400.552 384.213 401.056 383.205 401.056C382.449 401.056 381.933 400.588 381.825 399.94L380.385 400.324ZM383.409 398.368C382.581 398.368 381.993 397.792 381.993 396.868C381.993 395.956 382.617 395.38 383.409 395.38C384.177 395.38 384.801 395.956 384.801 396.868C384.801 397.78 384.225 398.368 383.409 398.368ZM391.565 394.072C391.445 394.06 391.325 394.048 391.193 394.048C390.689 394.048 389.873 394.192 389.513 394.972V394.096H387.965V400H389.561V397.3C389.561 396.028 390.269 395.632 391.085 395.632C391.229 395.632 391.385 395.644 391.565 395.68V394.072ZM393.793 396.376C393.829 395.836 394.285 395.212 395.113 395.212C396.025 395.212 396.409 395.788 396.433 396.376H393.793ZM396.589 397.912C396.397 398.44 395.989 398.812 395.245 398.812C394.453 398.812 393.793 398.248 393.757 397.468H397.981C397.981 397.444 398.005 397.204 398.005 396.976C398.005 395.08 396.913 393.916 395.089 393.916C393.577 393.916 392.185 395.14 392.185 397.024C392.185 399.016 393.613 400.18 395.233 400.18C396.685 400.18 397.621 399.328 397.921 398.308L396.589 397.912ZM398.758 398.356C398.83 399.028 399.442 400.18 401.218 400.18C402.766 400.18 403.51 399.196 403.51 398.236C403.51 397.372 402.922 396.664 401.758 396.424L400.918 396.244C400.594 396.184 400.378 396.004 400.378 395.716C400.378 395.38 400.714 395.128 401.134 395.128C401.806 395.128 402.058 395.572 402.106 395.92L403.438 395.62C403.366 394.984 402.802 393.916 401.122 393.916C399.85 393.916 398.914 394.792 398.914 395.848C398.914 396.676 399.43 397.36 400.57 397.612L401.35 397.792C401.806 397.888 401.986 398.104 401.986 398.368C401.986 398.68 401.734 398.956 401.206 398.956C400.51 398.956 400.162 398.524 400.126 398.056L398.758 398.356Z" fill="black"/>
<path d="M594.7 374H507.3C506.306 374 505.5 374.806 505.5 375.8V417.2C505.5 418.194 506.306 419 507.3 419H594.7C595.694 419 596.5 418.194 596.5 417.2V375.8C596.5 374.806 595.694 374 594.7 374Z" fill="#FFF9F2" stroke="#D79B00" stroke-dasharray="3 3"/>
<path d="M529.503 400V396.688H532.803V395.164H529.491V393.064H533.211V391.492H527.835V400H529.503ZM536.026 400V394.096H534.43V400H536.026ZM534.238 392.164C534.238 392.692 534.682 393.136 535.222 393.136C535.774 393.136 536.206 392.692 536.206 392.164C536.206 391.612 535.774 391.168 535.222 391.168C534.682 391.168 534.238 391.612 534.238 392.164ZM541.335 394.072C541.215 394.06 541.095 394.048 540.963 394.048C540.459 394.048 539.643 394.192 539.283 394.972V394.096H537.735V400H539.331V397.3C539.331 396.028 540.039 395.632 540.855 395.632C540.999 395.632 541.155 395.644 541.335 395.68V394.072ZM543.563 396.376C543.599 395.836 544.055 395.212 544.883 395.212C545.795 395.212 546.179 395.788 546.203 396.376H543.563ZM546.359 397.912C546.167 398.44 545.759 398.812 545.015 398.812C544.223 398.812 543.563 398.248 543.527 397.468H547.751C547.751 397.444 547.775 397.204 547.775 396.976C547.775 395.08 546.683 393.916 544.859 393.916C543.347 393.916 541.955 395.14 541.955 397.024C541.955 399.016 543.383 400.18 545.003 400.18C546.455 400.18 547.391 399.328 547.691 398.308L546.359 397.912ZM550.58 400V399.28C550.892 399.784 551.516 400.144 552.332 400.144C554.012 400.144 555.116 398.812 555.116 397.024C555.116 395.272 554.12 393.94 552.392 393.94C551.516 393.94 550.868 394.324 550.604 394.744V391.312H549.032V400H550.58ZM553.52 397.036C553.52 398.116 552.872 398.716 552.056 398.716C551.252 398.716 550.58 398.104 550.58 397.036C550.58 395.956 551.252 395.368 552.056 395.368C552.872 395.368 553.52 395.956 553.52 397.036ZM556.019 398.392C556.019 399.316 556.787 400.168 558.047 400.168C558.923 400.168 559.487 399.76 559.787 399.292C559.787 399.52 559.811 399.844 559.847 400H561.311C561.275 399.796 561.239 399.376 561.239 399.064V396.16C561.239 394.972 560.543 393.916 558.671 393.916C557.087 393.916 556.235 394.936 556.139 395.86L557.555 396.16C557.603 395.644 557.987 395.2 558.683 395.2C559.355 395.2 559.679 395.548 559.679 395.968C559.679 396.172 559.571 396.34 559.235 396.388L557.783 396.604C556.799 396.748 556.019 397.336 556.019 398.392ZM558.383 398.98C557.867 398.98 557.615 398.644 557.615 398.296C557.615 397.84 557.939 397.612 558.347 397.552L559.679 397.348V397.612C559.679 398.656 559.055 398.98 558.383 398.98ZM562.344 398.356C562.416 399.028 563.028 400.18 564.804 400.18C566.352 400.18 567.096 399.196 567.096 398.236C567.096 397.372 566.508 396.664 565.344 396.424L564.504 396.244C564.18 396.184 563.964 396.004 563.964 395.716C563.964 395.38 564.3 395.128 564.72 395.128C565.392 395.128 565.644 395.572 565.692 395.92L567.024 395.62C566.952 394.984 566.388 393.916 564.708 393.916C563.436 393.916 562.5 394.792 562.5 395.848C562.5 396.676 563.016 397.36 564.156 397.612L564.936 397.792C565.392 397.888 565.572 398.104 565.572 398.368C565.572 398.68 565.32 398.956 564.792 398.956C564.096 398.956 563.748 398.524 563.712 398.056L562.344 398.356ZM569.52 396.376C569.556 395.836 570.012 395.212 570.84 395.212C571.752 395.212 572.136 395.788 572.16 396.376H569.52ZM572.316 397.912C572.124 398.44 571.716 398.812 570.972 398.812C570.18 398.812 569.52 398.248 569.484 397.468H573.708C573.708 397.444 573.732 397.204 573.732 396.976C573.732 395.08 572.64 393.916 570.816 393.916C569.304 393.916 567.912 395.14 567.912 397.024C567.912 399.016 569.34 400.18 570.96 400.18C572.412 400.18 573.348 399.328 573.648 398.308L572.316 397.912Z" fill="black"/>
<path d="M453.7 217.5H307.3C306.306 217.5 305.5 218.306 305.5 219.3V260.7C305.5 261.694 306.306 262.5 307.3 262.5H453.7C454.694 262.5 455.5 261.694 455.5 260.7V219.3C455.5 218.306 454.694 217.5 453.7 217.5Z" fill="#FFF9F2" stroke="#D79B00" stroke-dasharray="3 3"/>
<path d="M353.046 238.868V236.432H354.354C355.182 236.432 355.686 236.9 355.686 237.656C355.686 238.388 355.182 238.868 354.354 238.868H353.046ZM354.558 240.296C356.238 240.296 357.354 239.192 357.354 237.644C357.354 236.108 356.238 234.992 354.558 234.992H351.378V243.5H353.034V240.296H354.558ZM360.813 242.228C360.033 242.228 359.313 241.652 359.313 240.548C359.313 239.432 360.033 238.868 360.813 238.868C361.593 238.868 362.313 239.432 362.313 240.548C362.313 241.664 361.593 242.228 360.813 242.228ZM360.813 237.416C359.049 237.416 357.717 238.724 357.717 240.548C357.717 242.36 359.049 243.68 360.813 243.68C362.577 243.68 363.909 242.36 363.909 240.548C363.909 238.724 362.577 237.416 360.813 237.416ZM364.664 241.856C364.736 242.528 365.348 243.68 367.124 243.68C368.672 243.68 369.416 242.696 369.416 241.736C369.416 240.872 368.828 240.164 367.664 239.924L366.824 239.744C366.5 239.684 366.284 239.504 366.284 239.216C366.284 238.88 366.62 238.628 367.04 238.628C367.712 238.628 367.964 239.072 368.012 239.42L369.344 239.12C369.272 238.484 368.708 237.416 367.028 237.416C365.756 237.416 364.82 238.292 364.82 239.348C364.82 240.176 365.336 240.86 366.476 241.112L367.256 241.292C367.712 241.388 367.892 241.604 367.892 241.868C367.892 242.18 367.64 242.456 367.112 242.456C366.416 242.456 366.068 242.024 366.032 241.556L364.664 241.856ZM372.668 235.832H371.228V236.66C371.228 237.188 370.94 237.596 370.316 237.596H370.016V239.012H371.084V241.76C371.084 242.9 371.804 243.584 372.956 243.584C373.424 243.584 373.712 243.5 373.856 243.44V242.12C373.772 242.144 373.556 242.168 373.364 242.168C372.908 242.168 372.668 242 372.668 241.484V239.012H373.856V237.596H372.668V235.832ZM374.733 243.824C374.901 244.952 375.981 245.96 377.601 245.96C379.821 245.96 380.697 244.484 380.697 242.864V237.596H379.161V238.292C378.957 237.896 378.417 237.488 377.481 237.488C375.861 237.488 374.733 238.808 374.733 240.368C374.733 242.024 375.909 243.236 377.481 243.236C378.333 243.236 378.885 242.864 379.125 242.48V242.912C379.125 244.052 378.561 244.556 377.553 244.556C376.797 244.556 376.281 244.088 376.173 243.44L374.733 243.824ZM377.757 241.868C376.929 241.868 376.341 241.292 376.341 240.368C376.341 239.456 376.965 238.88 377.757 238.88C378.525 238.88 379.149 239.456 379.149 240.368C379.149 241.28 378.573 241.868 377.757 241.868ZM386.633 243.5H388.481L386.657 240.02C387.773 239.696 388.469 238.796 388.469 237.608C388.469 236.132 387.413 234.992 385.757 234.992H382.433V243.5H384.101V240.224H384.965L386.633 243.5ZM384.101 238.796V236.432H385.445C386.285 236.432 386.777 236.9 386.777 237.62C386.777 238.316 386.285 238.796 385.445 238.796H384.101ZM395.261 243.5V241.94H391.589V239.972H394.913V238.496H391.589V236.552H395.261V234.992H389.933V243.5H395.261ZM402.641 237.02C402.449 236.06 401.657 234.812 399.593 234.812C397.985 234.812 396.629 235.964 396.629 237.476C396.629 238.76 397.505 239.636 398.861 239.912L400.049 240.152C400.709 240.284 401.081 240.668 401.081 241.16C401.081 241.76 400.589 242.204 399.701 242.204C398.501 242.204 397.913 241.448 397.841 240.608L396.305 241.016C396.437 242.228 397.433 243.68 399.689 243.68C401.669 243.68 402.761 242.36 402.761 241.052C402.761 239.852 401.933 238.844 400.385 238.544L399.197 238.316C398.573 238.196 398.273 237.824 398.273 237.356C398.273 236.792 398.801 236.276 399.605 236.276C400.685 236.276 401.069 237.008 401.153 237.476L402.641 237.02ZM410.4 236.564V234.992H403.356V236.564H406.044V243.5H407.712V236.564H410.4Z" fill="black"/>
<path d="M623.7 217.5H477.3C476.306 217.5 475.5 218.306 475.5 219.3V260.7C475.5 261.694 476.306 262.5 477.3 262.5H623.7C624.694 262.5 625.5 261.694 625.5 260.7V219.3C625.5 218.306 624.694 217.5 623.7 217.5Z" fill="#FFF9F2" stroke="#D79B00" stroke-dasharray="3 3"/>
<path d="M530.869 231.868V229.432H532.177C533.005 229.432 533.509 229.9 533.509 230.656C533.509 231.388 533.005 231.868 532.177 231.868H530.869ZM532.381 233.296C534.061 233.296 535.177 232.192 535.177 230.644C535.177 229.108 534.061 227.992 532.381 227.992H529.201V236.5H530.857V233.296H532.381ZM537.872 233.032C537.908 232.384 538.304 231.88 538.976 231.88C539.744 231.88 540.068 232.396 540.068 233.056V236.5H541.664V232.78C541.664 231.484 540.968 230.44 539.468 230.44C538.904 230.44 538.256 230.632 537.872 231.088V227.812H536.276V236.5H537.872V233.032ZM545.936 235.228C545.156 235.228 544.436 234.652 544.436 233.548C544.436 232.432 545.156 231.868 545.936 231.868C546.716 231.868 547.436 232.432 547.436 233.548C547.436 234.664 546.716 235.228 545.936 235.228ZM545.936 230.416C544.172 230.416 542.84 231.724 542.84 233.548C542.84 235.36 544.172 236.68 545.936 236.68C547.7 236.68 549.032 235.36 549.032 233.548C549.032 231.724 547.7 230.416 545.936 230.416ZM551.455 232.876C551.491 232.336 551.947 231.712 552.775 231.712C553.687 231.712 554.071 232.288 554.095 232.876H551.455ZM554.251 234.412C554.059 234.94 553.651 235.312 552.907 235.312C552.115 235.312 551.455 234.748 551.419 233.968H555.643C555.643 233.944 555.667 233.704 555.667 233.476C555.667 231.58 554.575 230.416 552.751 230.416C551.239 230.416 549.847 231.64 549.847 233.524C549.847 235.516 551.275 236.68 552.895 236.68C554.347 236.68 555.283 235.828 555.583 234.808L554.251 234.412ZM558.52 233.104C558.52 232.42 558.928 231.88 559.624 231.88C560.392 231.88 560.716 232.396 560.716 233.056V236.5H562.312V232.78C562.312 231.484 561.64 230.44 560.176 230.44C559.54 230.44 558.832 230.716 558.472 231.328V230.596H556.924V236.5H558.52V233.104ZM565.528 236.5V230.596H563.932V236.5H565.528ZM563.74 228.664C563.74 229.192 564.184 229.636 564.724 229.636C565.276 229.636 565.708 229.192 565.708 228.664C565.708 228.112 565.276 227.668 564.724 227.668C564.184 227.668 563.74 228.112 563.74 228.664ZM566.529 236.5H568.329C568.533 236.176 569.325 235.012 569.541 234.688L570.777 236.5H572.649L570.513 233.488L572.577 230.596H570.765L569.601 232.348C569.397 232.024 568.629 230.92 568.425 230.596H566.529L568.629 233.536L566.529 236.5Z" fill="black"/>
<path d="M522.626 250.5V248.94H518.954V246.972H522.278V245.496H518.954V243.552H522.626V241.992H517.298V250.5H522.626ZM525.759 250.5V241.812H524.163V250.5H525.759ZM529.063 250.5V244.596H527.467V250.5H529.063ZM527.275 242.664C527.275 243.192 527.719 243.636 528.259 243.636C528.811 243.636 529.243 243.192 529.243 242.664C529.243 242.112 528.811 241.668 528.259 241.668C527.719 241.668 527.275 242.112 527.275 242.664ZM530.064 250.5H531.864C532.068 250.176 532.86 249.012 533.076 248.688L534.312 250.5H536.184L534.048 247.488L536.112 244.596H534.3L533.136 246.348C532.932 246.024 532.164 244.92 531.96 244.596H530.064L532.164 247.536L530.064 250.5ZM538.755 250.5V244.596H537.159V250.5H538.755ZM536.967 242.664C536.967 243.192 537.411 243.636 537.951 243.636C538.503 243.636 538.935 243.192 538.935 242.664C538.935 242.112 538.503 241.668 537.951 241.668C537.411 241.668 536.967 242.112 536.967 242.664ZM544.063 244.572C543.943 244.56 543.823 244.548 543.691 244.548C543.187 244.548 542.371 244.692 542.011 245.472V244.596H540.463V250.5H542.059V247.8C542.059 246.528 542.767 246.132 543.583 246.132C543.727 246.132 543.883 246.144 544.063 246.18V244.572ZM553.96 244.02C553.768 243.06 552.976 241.812 550.912 241.812C549.304 241.812 547.948 242.964 547.948 244.476C547.948 245.76 548.824 246.636 550.18 246.912L551.368 247.152C552.028 247.284 552.4 247.668 552.4 248.16C552.4 248.76 551.908 249.204 551.02 249.204C549.82 249.204 549.232 248.448 549.16 247.608L547.624 248.016C547.756 249.228 548.752 250.68 551.008 250.68C552.988 250.68 554.08 249.36 554.08 248.052C554.08 246.852 553.252 245.844 551.704 245.544L550.516 245.316C549.892 245.196 549.592 244.824 549.592 244.356C549.592 243.792 550.12 243.276 550.924 243.276C552.004 243.276 552.388 244.008 552.472 244.476L553.96 244.02ZM556.475 246.876C556.511 246.336 556.967 245.712 557.795 245.712C558.707 245.712 559.091 246.288 559.115 246.876H556.475ZM559.271 248.412C559.079 248.94 558.671 249.312 557.927 249.312C557.135 249.312 556.475 248.748 556.439 247.968H560.663C560.663 247.944 560.687 247.704 560.687 247.476C560.687 245.58 559.595 244.416 557.771 244.416C556.259 244.416 554.867 245.64 554.867 247.524C554.867 249.516 556.295 250.68 557.915 250.68C559.367 250.68 560.303 249.828 560.603 248.808L559.271 248.412ZM565.544 244.572C565.424 244.56 565.304 244.548 565.172 244.548C564.668 244.548 563.852 244.692 563.492 245.472V244.596H561.944V250.5H563.54V247.8C563.54 246.528 564.248 246.132 565.064 246.132C565.208 246.132 565.364 246.144 565.544 246.18V244.572ZM572.41 244.596H570.73L569.326 248.556L567.862 244.596H566.11L568.522 250.5H570.118L572.41 244.596ZM574.37 246.876C574.406 246.336 574.862 245.712 575.69 245.712C576.602 245.712 576.986 246.288 577.01 246.876H574.37ZM577.166 248.412C576.974 248.94 576.566 249.312 575.822 249.312C575.03 249.312 574.37 248.748 574.334 247.968H578.558C578.558 247.944 578.582 247.704 578.582 247.476C578.582 245.58 577.49 244.416 575.666 244.416C574.154 244.416 572.762 245.64 572.762 247.524C572.762 249.516 574.19 250.68 575.81 250.68C577.262 250.68 578.198 249.828 578.498 248.808L577.166 248.412ZM583.438 244.572C583.318 244.56 583.198 244.548 583.066 244.548C582.562 244.548 581.746 244.692 581.386 245.472V244.596H579.838V250.5H581.434V247.8C581.434 246.528 582.142 246.132 582.958 246.132C583.102 246.132 583.258 246.144 583.438 246.18V244.572Z" fill="black"/>
<path d="M283.7 217.5H137.3C136.306 217.5 135.5 218.306 135.5 219.3V260.7C135.5 261.694 136.306 262.5 137.3 262.5H283.7C284.694 262.5 285.5 261.694 285.5 260.7V219.3C285.5 218.306 284.694 217.5 283.7 217.5Z" fill="#FFF9F2" stroke="#D79B00" stroke-dasharray="3 3"/>
<path d="M187.973 237.02C187.781 236.06 186.989 234.812 184.925 234.812C183.317 234.812 181.961 235.964 181.961 237.476C181.961 238.76 182.837 239.636 184.193 239.912L185.381 240.152C186.041 240.284 186.413 240.668 186.413 241.16C186.413 241.76 185.921 242.204 185.033 242.204C183.833 242.204 183.245 241.448 183.173 240.608L181.637 241.016C181.769 242.228 182.765 243.68 185.021 243.68C187.001 243.68 188.093 242.36 188.093 241.052C188.093 239.852 187.265 238.844 185.717 238.544L184.529 238.316C183.905 238.196 183.605 237.824 183.605 237.356C183.605 236.792 184.133 236.276 184.937 236.276C186.017 236.276 186.401 237.008 186.485 237.476L187.973 237.02ZM190.489 239.876C190.525 239.336 190.981 238.712 191.809 238.712C192.721 238.712 193.105 239.288 193.129 239.876H190.489ZM193.285 241.412C193.093 241.94 192.685 242.312 191.941 242.312C191.149 242.312 190.489 241.748 190.453 240.968H194.677C194.677 240.944 194.701 240.704 194.701 240.476C194.701 238.58 193.609 237.416 191.785 237.416C190.273 237.416 188.881 238.64 188.881 240.524C188.881 242.516 190.309 243.68 191.929 243.68C193.381 243.68 194.317 242.828 194.617 241.808L193.285 241.412ZM199.557 237.572C199.437 237.56 199.317 237.548 199.185 237.548C198.681 237.548 197.865 237.692 197.505 238.472V237.596H195.957V243.5H197.553V240.8C197.553 239.528 198.261 239.132 199.077 239.132C199.221 239.132 199.377 239.144 199.557 239.18V237.572ZM206.424 237.596H204.744L203.34 241.556L201.876 237.596H200.124L202.536 243.5H204.132L206.424 237.596ZM208.383 239.876C208.419 239.336 208.875 238.712 209.703 238.712C210.615 238.712 210.999 239.288 211.023 239.876H208.383ZM211.179 241.412C210.987 241.94 210.579 242.312 209.835 242.312C209.043 242.312 208.383 241.748 208.347 240.968H212.571C212.571 240.944 212.595 240.704 212.595 240.476C212.595 238.58 211.503 237.416 209.679 237.416C208.167 237.416 206.775 238.64 206.775 240.524C206.775 242.516 208.203 243.68 209.823 243.68C211.275 243.68 212.211 242.828 212.511 241.808L211.179 241.412ZM217.452 237.572C217.332 237.56 217.212 237.548 217.08 237.548C216.576 237.548 215.76 237.692 215.4 238.472V237.596H213.852V243.5H215.448V240.8C215.448 239.528 216.156 239.132 216.972 239.132C217.116 239.132 217.272 239.144 217.452 239.18V237.572ZM220.171 243.5V234.812H218.575V243.5H220.171ZM223.043 239.876C223.079 239.336 223.535 238.712 224.363 238.712C225.275 238.712 225.659 239.288 225.683 239.876H223.043ZM225.839 241.412C225.647 241.94 225.239 242.312 224.495 242.312C223.703 242.312 223.043 241.748 223.007 240.968H227.231C227.231 240.944 227.255 240.704 227.255 240.476C227.255 238.58 226.163 237.416 224.339 237.416C222.827 237.416 221.435 238.64 221.435 240.524C221.435 242.516 222.863 243.68 224.483 243.68C225.935 243.68 226.871 242.828 227.171 241.808L225.839 241.412ZM228.008 241.856C228.08 242.528 228.692 243.68 230.468 243.68C232.016 243.68 232.76 242.696 232.76 241.736C232.76 240.872 232.172 240.164 231.008 239.924L230.168 239.744C229.844 239.684 229.628 239.504 229.628 239.216C229.628 238.88 229.964 238.628 230.384 238.628C231.056 238.628 231.308 239.072 231.356 239.42L232.688 239.12C232.616 238.484 232.052 237.416 230.372 237.416C229.1 237.416 228.164 238.292 228.164 239.348C228.164 240.176 228.68 240.86 229.82 241.112L230.6 241.292C231.056 241.388 231.236 241.604 231.236 241.868C231.236 242.18 230.984 242.456 230.456 242.456C229.76 242.456 229.412 242.024 229.376 241.556L228.008 241.856ZM233.539 241.856C233.611 242.528 234.223 243.68 235.999 243.68C237.547 243.68 238.291 242.696 238.291 241.736C238.291 240.872 237.703 240.164 236.539 239.924L235.699 239.744C235.375 239.684 235.159 239.504 235.159 239.216C235.159 238.88 235.495 238.628 235.915 238.628C236.587 238.628 236.839 239.072 236.887 239.42L238.219 239.12C238.147 238.484 237.583 237.416 235.903 237.416C234.631 237.416 233.695 238.292 233.695 239.348C233.695 240.176 234.211 240.86 235.351 241.112L236.131 241.292C236.587 241.388 236.767 241.604 236.767 241.868C236.767 242.18 236.515 242.456 235.987 242.456C235.291 242.456 234.943 242.024 234.907 241.556L233.539 241.856Z" fill="black"/>
<path d="M380.5 146.87V179.13" stroke="#666666" stroke-miterlimit="10"/>
<path d="M380.5 141.62L384 148.62L380.5 146.87L377 148.62L380.5 141.62Z" fill="#666666" stroke="#666666" stroke-miterlimit="10"/>
<path d="M380.5 184.38L377 177.38L380.5 179.13L384 177.38L380.5 184.38Z" fill="#666666" stroke="#666666" stroke-miterlimit="10"/>
<path d="M407.5 152.5H362.5V167.5H407.5V152.5Z" fill="white"/>
<path d="M366.904 162.5H368.752L366.928 159.02C368.044 158.696 368.74 157.796 368.74 156.608C368.74 155.132 367.684 153.992 366.028 153.992H362.704V162.5H364.372V159.224H365.236L366.904 162.5ZM364.372 157.796V155.432H365.716C366.556 155.432 367.048 155.9 367.048 156.62C367.048 157.316 366.556 157.796 365.716 157.796H364.372ZM375.532 162.5V160.94H371.86V158.972H375.184V157.496H371.86V155.552H375.532V153.992H370.204V162.5H375.532ZM382.913 156.02C382.721 155.06 381.929 153.812 379.865 153.812C378.257 153.812 376.901 154.964 376.901 156.476C376.901 157.76 377.777 158.636 379.133 158.912L380.321 159.152C380.981 159.284 381.353 159.668 381.353 160.16C381.353 160.76 380.861 161.204 379.973 161.204C378.773 161.204 378.185 160.448 378.113 159.608L376.577 160.016C376.709 161.228 377.705 162.68 379.961 162.68C381.941 162.68 383.033 161.36 383.033 160.052C383.033 158.852 382.205 157.844 380.657 157.544L379.469 157.316C378.845 157.196 378.545 156.824 378.545 156.356C378.545 155.792 379.073 155.276 379.877 155.276C380.957 155.276 381.341 156.008 381.425 156.476L382.913 156.02ZM390.672 155.564V153.992H383.628V155.564H386.316V162.5H387.984V155.564H390.672ZM394.266 155.132C394.53 155.132 394.686 155.168 394.77 155.192V153.848C394.638 153.788 394.314 153.728 393.978 153.728C392.67 153.728 391.83 154.592 391.83 155.924V156.596H390.846V157.964H391.83V162.5H393.438V157.964H394.77V156.596H393.438V155.948C393.438 155.288 393.906 155.132 394.266 155.132ZM399.648 162.5H401.172C401.148 162.296 401.112 161.888 401.112 161.432V156.596H399.516V160.028C399.516 160.712 399.108 161.192 398.4 161.192C397.656 161.192 397.32 160.664 397.32 160.004V156.596H395.724V160.328C395.724 161.612 396.54 162.656 397.968 162.656C398.592 162.656 399.276 162.416 399.6 161.864C399.6 162.104 399.624 162.38 399.648 162.5ZM404.411 162.5V153.812H402.815V162.5H404.411Z" fill="black"/>
<path d="M380.5 301.87V335.13" stroke="#666666" stroke-miterlimit="10"/>
<path d="M380.5 296.62L384 303.62L380.5 301.87L377 303.62L380.5 296.62Z" fill="#666666" stroke="#666666" stroke-miterlimit="10"/>
<path d="M380.5 340.38L377 333.38L380.5 335.13L384 333.38L380.5 340.38Z" fill="#666666" stroke="#666666" stroke-miterlimit="10"/>
<path d="M401.5 306.5H356.5V321.5H401.5V306.5Z" fill="white"/>
<path d="M360.904 316.5H362.752L360.928 313.02C362.044 312.696 362.74 311.796 362.74 310.608C362.74 309.132 361.684 307.992 360.028 307.992H356.704V316.5H358.372V313.224H359.236L360.904 316.5ZM358.372 311.796V309.432H359.716C360.556 309.432 361.048 309.9 361.048 310.62C361.048 311.316 360.556 311.796 359.716 311.796H358.372ZM369.532 316.5V314.94H365.86V312.972H369.184V311.496H365.86V309.552H369.532V307.992H364.204V316.5H369.532ZM376.913 310.02C376.721 309.06 375.929 307.812 373.865 307.812C372.257 307.812 370.901 308.964 370.901 310.476C370.901 311.76 371.777 312.636 373.133 312.912L374.321 313.152C374.981 313.284 375.353 313.668 375.353 314.16C375.353 314.76 374.861 315.204 373.973 315.204C372.773 315.204 372.185 314.448 372.113 313.608L370.577 314.016C370.709 315.228 371.705 316.68 373.961 316.68C375.941 316.68 377.033 315.36 377.033 314.052C377.033 312.852 376.205 311.844 374.657 311.544L373.469 311.316C372.845 311.196 372.545 310.824 372.545 310.356C372.545 309.792 373.073 309.276 373.877 309.276C374.957 309.276 375.341 310.008 375.425 310.476L376.913 310.02ZM384.672 309.564V307.992H377.628V309.564H380.316V316.5H381.984V309.564H384.672ZM388.266 309.132C388.53 309.132 388.686 309.168 388.77 309.192V307.848C388.638 307.788 388.314 307.728 387.978 307.728C386.67 307.728 385.83 308.592 385.83 309.924V310.596H384.846V311.964H385.83V316.5H387.438V311.964H388.77V310.596H387.438V309.948C387.438 309.288 387.906 309.132 388.266 309.132ZM393.648 316.5H395.172C395.148 316.296 395.112 315.888 395.112 315.432V310.596H393.516V314.028C393.516 314.712 393.108 315.192 392.4 315.192C391.656 315.192 391.32 314.664 391.32 314.004V310.596H389.724V314.328C389.724 315.612 390.54 316.656 391.968 316.656C392.592 316.656 393.276 316.416 393.6 315.864C393.6 316.104 393.624 316.38 393.648 316.5ZM398.411 316.5V307.812H396.815V316.5H398.411Z" fill="black"/>
<path d="M596.5 396.5V407.5H700.5V85.5H661.87" stroke="#666666" stroke-miterlimit="10"/>
<path d="M656.62 85.5L663.62 82L661.87 85.5L663.62 89L656.62 85.5Z" fill="#666666" stroke="#666666" stroke-miterlimit="10"/>
<path d="M418.5 374.5V318.5H550.5V268.87" stroke="#666666" stroke-miterlimit="10"/>
<path d="M550.5 263.62L554 270.62L550.5 268.87L547 270.62L550.5 263.62Z" fill="#666666" stroke="#666666" stroke-miterlimit="10"/>
<path d="M492.5 309.5H432.5V324.5H492.5V309.5Z" fill="white"/>
<path d="M437.928 319.5H439.776L437.952 316.02C439.068 315.696 439.764 314.796 439.764 313.608C439.764 312.132 438.708 310.992 437.052 310.992H433.728V319.5H435.396V316.224H436.26L437.928 319.5ZM435.396 314.796V312.432H436.74C437.58 312.432 438.072 312.9 438.072 313.62C438.072 314.316 437.58 314.796 436.74 314.796H435.396ZM446.556 319.5V317.94H442.884V315.972H446.208V314.496H442.884V312.552H446.556V310.992H441.228V319.5H446.556ZM453.984 319.5H455.784L452.544 310.992H450.624L447.36 319.5H449.112L449.82 317.556H453.276L453.984 319.5ZM451.548 312.828L452.724 316.044H450.372L451.548 312.828ZM462.32 319.5V317.916H458.528V310.992H456.872V319.5H462.32ZM469.007 312.564V310.992H461.963V312.564H464.651V319.5H466.319V312.564H469.007ZM471.853 319.5V310.992H470.173V319.5H471.853ZM483.286 319.5V310.992H481.03L478.534 317.136L475.978 310.992H473.794V319.5H475.378V313.584L477.826 319.5H479.206L481.654 313.536V319.5H483.286ZM490.56 319.5V317.94H486.888V315.972H490.212V314.496H486.888V312.552H490.56V310.992H485.232V319.5H490.56Z" fill="black"/>
<path d="M625.5 240.5V237.5H700.5V85.5H661.87" stroke="#666666" stroke-miterlimit="10"/>
<path d="M656.62 85.5L663.62 82L661.87 85.5L663.62 89L656.62 85.5Z" fill="#666666" stroke="#666666" stroke-miterlimit="10"/>
<path d="M734.5 208.5H674.5V223.5H734.5V208.5Z" fill="white"/>
<path d="M679.928 218.5H681.776L679.952 215.02C681.068 214.696 681.764 213.796 681.764 212.608C681.764 211.132 680.708 209.992 679.052 209.992H675.728V218.5H677.396V215.224H678.26L679.928 218.5ZM677.396 213.796V211.432H678.74C679.58 211.432 680.072 211.9 680.072 212.62C680.072 213.316 679.58 213.796 678.74 213.796H677.396ZM688.556 218.5V216.94H684.884V214.972H688.208V213.496H684.884V211.552H688.556V209.992H683.228V218.5H688.556ZM695.984 218.5H697.784L694.544 209.992H692.624L689.36 218.5H691.112L691.82 216.556H695.276L695.984 218.5ZM693.548 211.828L694.724 215.044H692.372L693.548 211.828ZM704.32 218.5V216.916H700.528V209.992H698.872V218.5H704.32ZM711.007 211.564V209.992H703.963V211.564H706.651V218.5H708.319V211.564H711.007ZM713.853 218.5V209.992H712.173V218.5H713.853ZM725.286 218.5V209.992H723.03L720.534 216.136L717.978 209.992H715.794V218.5H717.378V212.584L719.826 218.5H721.206L723.654 212.536V218.5H725.286ZM732.56 218.5V216.94H728.888V214.972H732.212V213.496H728.888V211.552H732.56V209.992H727.232V218.5H732.56Z" fill="black"/>
</svg>
