<svg width="631" height="361" viewBox="0 0 631 361" fill="none" xmlns="http://www.w3.org/2000/svg">
<path d="M630.5 0.5H0.5V360.5H630.5V0.5Z" fill="white" stroke="#B0B0B0"/>
<path d="M241.7 40.5H95.3C94.3059 40.5 93.5 41.3059 93.5 42.3V83.7C93.5 84.6941 94.3059 85.5 95.3 85.5H241.7C242.694 85.5 243.5 84.6941 243.5 83.7V42.3C243.5 41.3059 242.694 40.5 241.7 40.5Z" fill="#FFF9F2" stroke="#D79B00" stroke-dasharray="3 3"/>
<path d="M144.16 69V60.492H142.492V63.912H138.784V60.492H137.128V69H138.784V65.472H142.492V69H144.16ZM145.601 64.752C145.601 67.488 147.665 69.18 149.969 69.18C150.761 69.18 151.529 68.976 152.189 68.604L153.233 69.756L154.325 68.82L153.305 67.692C153.953 66.948 154.349 65.952 154.349 64.752C154.349 62.004 152.285 60.312 149.969 60.312C147.665 60.312 145.601 62.004 145.601 64.752ZM147.317 64.74C147.317 62.82 148.661 61.908 149.969 61.908C151.289 61.908 152.633 62.82 152.633 64.74C152.633 65.436 152.453 66 152.165 66.432L150.833 64.944L149.729 65.892L151.061 67.356C150.725 67.5 150.341 67.572 149.969 67.572C148.661 67.572 147.317 66.66 147.317 64.74ZM161.2 66.144V64.728H157.72V66.144H161.2ZM168.257 69.192C170.081 69.192 171.533 68.076 171.533 65.988V60.492H169.877V65.868C169.877 66.984 169.265 67.572 168.257 67.572C167.273 67.572 166.649 66.984 166.649 65.868V60.492H164.993V65.988C164.993 68.076 166.445 69.192 168.257 69.192ZM172.739 67.356C172.811 68.028 173.423 69.18 175.199 69.18C176.747 69.18 177.491 68.196 177.491 67.236C177.491 66.372 176.903 65.664 175.739 65.424L174.899 65.244C174.575 65.184 174.359 65.004 174.359 64.716C174.359 64.38 174.695 64.128 175.115 64.128C175.787 64.128 176.039 64.572 176.087 64.92L177.419 64.62C177.347 63.984 176.783 62.916 175.103 62.916C173.831 62.916 172.895 63.792 172.895 64.848C172.895 65.676 173.411 66.36 174.551 66.612L175.331 66.792C175.787 66.888 175.967 67.104 175.967 67.368C175.967 67.68 175.715 67.956 175.187 67.956C174.491 67.956 174.143 67.524 174.107 67.056L172.739 67.356ZM179.914 65.376C179.95 64.836 180.406 64.212 181.234 64.212C182.146 64.212 182.53 64.788 182.554 65.376H179.914ZM182.71 66.912C182.518 67.44 182.11 67.812 181.366 67.812C180.574 67.812 179.914 67.248 179.878 66.468H184.102C184.102 66.444 184.126 66.204 184.126 65.976C184.126 64.08 183.034 62.916 181.21 62.916C179.698 62.916 178.306 64.14 178.306 66.024C178.306 68.016 179.734 69.18 181.354 69.18C182.806 69.18 183.742 68.328 184.042 67.308L182.71 66.912ZM188.983 63.072C188.863 63.06 188.743 63.048 188.611 63.048C188.107 63.048 187.291 63.192 186.931 63.972V63.096H185.383V69H186.979V66.3C186.979 65.028 187.687 64.632 188.503 64.632C188.647 64.632 188.803 64.644 188.983 64.68V63.072ZM198.928 69H200.728L197.488 60.492H195.568L192.304 69H194.056L194.764 67.056H198.22L198.928 69ZM196.492 62.328L197.668 65.544H195.316L196.492 62.328Z" fill="black"/>
<path d="M386.7 270.5H240.3C239.306 270.5 238.5 271.306 238.5 272.3V313.7C238.5 314.694 239.306 315.5 240.3 315.5H386.7C387.694 315.5 388.5 314.694 388.5 313.7V272.3C388.5 271.306 387.694 270.5 386.7 270.5Z" fill="#FFF9F2" stroke="#D79B00" stroke-dasharray="3 3"/>
<path d="M292.64 294.368V291.932H293.948C294.776 291.932 295.28 292.4 295.28 293.156C295.28 293.888 294.776 294.368 293.948 294.368H292.64ZM294.152 295.796C295.832 295.796 296.948 294.692 296.948 293.144C296.948 291.608 295.832 290.492 294.152 290.492H290.972V299H292.628V295.796H294.152ZM300.406 297.728C299.626 297.728 298.906 297.152 298.906 296.048C298.906 294.932 299.626 294.368 300.406 294.368C301.186 294.368 301.906 294.932 301.906 296.048C301.906 297.164 301.186 297.728 300.406 297.728ZM300.406 292.916C298.642 292.916 297.31 294.224 297.31 296.048C297.31 297.86 298.642 299.18 300.406 299.18C302.17 299.18 303.502 297.86 303.502 296.048C303.502 294.224 302.17 292.916 300.406 292.916ZM304.258 297.356C304.33 298.028 304.942 299.18 306.718 299.18C308.266 299.18 309.01 298.196 309.01 297.236C309.01 296.372 308.422 295.664 307.258 295.424L306.418 295.244C306.094 295.184 305.878 295.004 305.878 294.716C305.878 294.38 306.214 294.128 306.634 294.128C307.306 294.128 307.558 294.572 307.606 294.92L308.938 294.62C308.866 293.984 308.302 292.916 306.622 292.916C305.35 292.916 304.414 293.792 304.414 294.848C304.414 295.676 304.93 296.36 306.07 296.612L306.85 296.792C307.306 296.888 307.486 297.104 307.486 297.368C307.486 297.68 307.234 297.956 306.706 297.956C306.01 297.956 305.662 297.524 305.626 297.056L304.258 297.356ZM312.261 291.332H310.821V292.16C310.821 292.688 310.533 293.096 309.909 293.096H309.609V294.512H310.677V297.26C310.677 298.4 311.397 299.084 312.549 299.084C313.017 299.084 313.305 299 313.449 298.94V297.62C313.365 297.644 313.149 297.668 312.957 297.668C312.501 297.668 312.261 297.5 312.261 296.984V294.512H313.449V293.096H312.261V291.332ZM314.327 299.324C314.495 300.452 315.575 301.46 317.195 301.46C319.415 301.46 320.291 299.984 320.291 298.364V293.096H318.755V293.792C318.551 293.396 318.011 292.988 317.075 292.988C315.455 292.988 314.327 294.308 314.327 295.868C314.327 297.524 315.503 298.736 317.075 298.736C317.927 298.736 318.479 298.364 318.719 297.98V298.412C318.719 299.552 318.155 300.056 317.147 300.056C316.391 300.056 315.875 299.588 315.767 298.94L314.327 299.324ZM317.351 297.368C316.523 297.368 315.935 296.792 315.935 295.868C315.935 294.956 316.559 294.38 317.351 294.38C318.119 294.38 318.743 294.956 318.743 295.868C318.743 296.78 318.167 297.368 317.351 297.368ZM325.507 293.072C325.387 293.06 325.267 293.048 325.135 293.048C324.631 293.048 323.815 293.192 323.455 293.972V293.096H321.907V299H323.503V296.3C323.503 295.028 324.211 294.632 325.027 294.632C325.171 294.632 325.327 294.644 325.507 294.68V293.072ZM327.735 295.376C327.771 294.836 328.227 294.212 329.055 294.212C329.967 294.212 330.351 294.788 330.375 295.376H327.735ZM330.531 296.912C330.339 297.44 329.931 297.812 329.187 297.812C328.395 297.812 327.735 297.248 327.699 296.468H331.923C331.923 296.444 331.947 296.204 331.947 295.976C331.947 294.08 330.855 292.916 329.031 292.916C327.519 292.916 326.127 294.14 326.127 296.024C326.127 298.016 327.555 299.18 329.175 299.18C330.627 299.18 331.563 298.328 331.863 297.308L330.531 296.912ZM332.7 297.356C332.772 298.028 333.384 299.18 335.16 299.18C336.708 299.18 337.452 298.196 337.452 297.236C337.452 296.372 336.864 295.664 335.7 295.424L334.86 295.244C334.536 295.184 334.32 295.004 334.32 294.716C334.32 294.38 334.656 294.128 335.076 294.128C335.748 294.128 336 294.572 336.048 294.92L337.38 294.62C337.308 293.984 336.744 292.916 335.064 292.916C333.792 292.916 332.856 293.792 332.856 294.848C332.856 295.676 333.372 296.36 334.512 296.612L335.292 296.792C335.748 296.888 335.928 297.104 335.928 297.368C335.928 297.68 335.676 297.956 335.148 297.956C334.452 297.956 334.104 297.524 334.068 297.056L332.7 297.356Z" fill="black"/>
<path d="M241.7 160.5H95.3C94.3059 160.5 93.5 161.306 93.5 162.3V203.7C93.5 204.694 94.3059 205.5 95.3 205.5H241.7C242.694 205.5 243.5 204.694 243.5 203.7V162.3C243.5 161.306 242.694 160.5 241.7 160.5Z" fill="#FFF9F2" stroke="#D79B00" stroke-dasharray="3 3"/>
<path d="M140.14 184.368V181.932H141.448C142.276 181.932 142.78 182.4 142.78 183.156C142.78 183.888 142.276 184.368 141.448 184.368H140.14ZM141.652 185.796C143.332 185.796 144.448 184.692 144.448 183.144C144.448 181.608 143.332 180.492 141.652 180.492H138.472V189H140.128V185.796H141.652ZM147.906 187.728C147.126 187.728 146.406 187.152 146.406 186.048C146.406 184.932 147.126 184.368 147.906 184.368C148.686 184.368 149.406 184.932 149.406 186.048C149.406 187.164 148.686 187.728 147.906 187.728ZM147.906 182.916C146.142 182.916 144.81 184.224 144.81 186.048C144.81 187.86 146.142 189.18 147.906 189.18C149.67 189.18 151.002 187.86 151.002 186.048C151.002 184.224 149.67 182.916 147.906 182.916ZM151.758 187.356C151.83 188.028 152.442 189.18 154.218 189.18C155.766 189.18 156.51 188.196 156.51 187.236C156.51 186.372 155.922 185.664 154.758 185.424L153.918 185.244C153.594 185.184 153.378 185.004 153.378 184.716C153.378 184.38 153.714 184.128 154.134 184.128C154.806 184.128 155.058 184.572 155.106 184.92L156.438 184.62C156.366 183.984 155.802 182.916 154.122 182.916C152.85 182.916 151.914 183.792 151.914 184.848C151.914 185.676 152.43 186.36 153.57 186.612L154.35 186.792C154.806 186.888 154.986 187.104 154.986 187.368C154.986 187.68 154.734 187.956 154.206 187.956C153.51 187.956 153.162 187.524 153.126 187.056L151.758 187.356ZM159.761 181.332H158.321V182.16C158.321 182.688 158.033 183.096 157.409 183.096H157.109V184.512H158.177V187.26C158.177 188.4 158.897 189.084 160.049 189.084C160.517 189.084 160.805 189 160.949 188.94V187.62C160.865 187.644 160.649 187.668 160.457 187.668C160.001 187.668 159.761 187.5 159.761 186.984V184.512H160.949V183.096H159.761V181.332ZM161.827 189.324C161.995 190.452 163.075 191.46 164.695 191.46C166.915 191.46 167.791 189.984 167.791 188.364V183.096H166.255V183.792C166.051 183.396 165.511 182.988 164.575 182.988C162.955 182.988 161.827 184.308 161.827 185.868C161.827 187.524 163.003 188.736 164.575 188.736C165.427 188.736 165.979 188.364 166.219 187.98V188.412C166.219 189.552 165.655 190.056 164.647 190.056C163.891 190.056 163.375 189.588 163.267 188.94L161.827 189.324ZM164.851 187.368C164.023 187.368 163.435 186.792 163.435 185.868C163.435 184.956 164.059 184.38 164.851 184.38C165.619 184.38 166.243 184.956 166.243 185.868C166.243 186.78 165.667 187.368 164.851 187.368ZM173.727 189H175.575L173.751 185.52C174.867 185.196 175.563 184.296 175.563 183.108C175.563 181.632 174.507 180.492 172.851 180.492H169.527V189H171.195V185.724H172.059L173.727 189ZM171.195 184.296V181.932H172.539C173.379 181.932 173.871 182.4 173.871 183.12C173.871 183.816 173.379 184.296 172.539 184.296H171.195ZM182.355 189V187.44H178.683V185.472H182.007V183.996H178.683V182.052H182.355V180.492H177.027V189H182.355ZM189.735 182.52C189.543 181.56 188.751 180.312 186.687 180.312C185.079 180.312 183.723 181.464 183.723 182.976C183.723 184.26 184.599 185.136 185.955 185.412L187.143 185.652C187.803 185.784 188.175 186.168 188.175 186.66C188.175 187.26 187.683 187.704 186.795 187.704C185.595 187.704 185.007 186.948 184.935 186.108L183.399 186.516C183.531 187.728 184.527 189.18 186.783 189.18C188.763 189.18 189.855 187.86 189.855 186.552C189.855 185.352 189.027 184.344 187.479 184.044L186.291 183.816C185.667 183.696 185.367 183.324 185.367 182.856C185.367 182.292 185.895 181.776 186.699 181.776C187.779 181.776 188.163 182.508 188.247 182.976L189.735 182.52ZM197.494 182.064V180.492H190.45V182.064H193.138V189H194.806V182.064H197.494Z" fill="black"/>
<path d="M531.7 160.5H385.3C384.306 160.5 383.5 161.306 383.5 162.3V203.7C383.5 204.694 384.306 205.5 385.3 205.5H531.7C532.694 205.5 533.5 204.694 533.5 203.7V162.3C533.5 161.306 532.694 160.5 531.7 160.5Z" fill="#FFF9F2" stroke="#D79B00" stroke-dasharray="3 3"/>
<path d="M400.048 184.368V181.932H401.356C402.184 181.932 402.688 182.4 402.688 183.156C402.688 183.888 402.184 184.368 401.356 184.368H400.048ZM401.56 185.796C403.24 185.796 404.356 184.692 404.356 183.144C404.356 181.608 403.24 180.492 401.56 180.492H398.38V189H400.036V185.796H401.56ZM407.052 185.532C407.088 184.884 407.484 184.38 408.156 184.38C408.924 184.38 409.248 184.896 409.248 185.556V189H410.844V185.28C410.844 183.984 410.148 182.94 408.648 182.94C408.084 182.94 407.436 183.132 407.052 183.588V180.312H405.456V189H407.052V185.532ZM415.115 187.728C414.335 187.728 413.615 187.152 413.615 186.048C413.615 184.932 414.335 184.368 415.115 184.368C415.895 184.368 416.615 184.932 416.615 186.048C416.615 187.164 415.895 187.728 415.115 187.728ZM415.115 182.916C413.351 182.916 412.019 184.224 412.019 186.048C412.019 187.86 413.351 189.18 415.115 189.18C416.879 189.18 418.211 187.86 418.211 186.048C418.211 184.224 416.879 182.916 415.115 182.916ZM420.635 185.376C420.671 184.836 421.127 184.212 421.955 184.212C422.867 184.212 423.251 184.788 423.275 185.376H420.635ZM423.431 186.912C423.239 187.44 422.831 187.812 422.087 187.812C421.295 187.812 420.635 187.248 420.599 186.468H424.823C424.823 186.444 424.847 186.204 424.847 185.976C424.847 184.08 423.755 182.916 421.931 182.916C420.419 182.916 419.027 184.14 419.027 186.024C419.027 188.016 420.455 189.18 422.075 189.18C423.527 189.18 424.463 188.328 424.763 187.308L423.431 186.912ZM427.7 185.604C427.7 184.92 428.108 184.38 428.804 184.38C429.572 184.38 429.896 184.896 429.896 185.556V189H431.492V185.28C431.492 183.984 430.82 182.94 429.356 182.94C428.72 182.94 428.012 183.216 427.652 183.828V183.096H426.104V189H427.7V185.604ZM434.708 189V183.096H433.112V189H434.708ZM432.92 181.164C432.92 181.692 433.364 182.136 433.904 182.136C434.456 182.136 434.888 181.692 434.888 181.164C434.888 180.612 434.456 180.168 433.904 180.168C433.364 180.168 432.92 180.612 432.92 181.164ZM435.708 189H437.508C437.712 188.676 438.504 187.512 438.72 187.188L439.956 189H441.828L439.692 185.988L441.756 183.096H439.944L438.78 184.848C438.576 184.524 437.808 183.42 437.604 183.096H435.708L437.808 186.036L435.708 189ZM448.338 186.144V184.728H444.858V186.144H448.338ZM457.544 189V187.44H453.872V185.472H457.196V183.996H453.872V182.052H457.544V180.492H452.216V189H457.544ZM460.677 189V180.312H459.081V189H460.677ZM463.981 189V183.096H462.385V189H463.981ZM462.193 181.164C462.193 181.692 462.637 182.136 463.177 182.136C463.729 182.136 464.161 181.692 464.161 181.164C464.161 180.612 463.729 180.168 463.177 180.168C462.637 180.168 462.193 180.612 462.193 181.164ZM464.982 189H466.782C466.986 188.676 467.778 187.512 467.994 187.188L469.23 189H471.102L468.966 185.988L471.03 183.096H469.218L468.054 184.848C467.85 184.524 467.082 183.42 466.878 183.096H464.982L467.082 186.036L464.982 189ZM473.673 189V183.096H472.077V189H473.673ZM471.885 181.164C471.885 181.692 472.329 182.136 472.869 182.136C473.421 182.136 473.853 181.692 473.853 181.164C473.853 180.612 473.421 180.168 472.869 180.168C472.329 180.168 471.885 180.612 471.885 181.164ZM478.981 183.072C478.861 183.06 478.741 183.048 478.609 183.048C478.105 183.048 477.289 183.192 476.929 183.972V183.096H475.381V189H476.977V186.3C476.977 185.028 477.685 184.632 478.501 184.632C478.645 184.632 478.801 184.644 478.981 184.68V183.072ZM488.878 182.52C488.686 181.56 487.894 180.312 485.83 180.312C484.222 180.312 482.866 181.464 482.866 182.976C482.866 184.26 483.742 185.136 485.098 185.412L486.286 185.652C486.946 185.784 487.318 186.168 487.318 186.66C487.318 187.26 486.826 187.704 485.938 187.704C484.738 187.704 484.15 186.948 484.078 186.108L482.542 186.516C482.674 187.728 483.67 189.18 485.926 189.18C487.906 189.18 488.998 187.86 488.998 186.552C488.998 185.352 488.17 184.344 486.622 184.044L485.434 183.816C484.81 183.696 484.51 183.324 484.51 182.856C484.51 182.292 485.038 181.776 485.842 181.776C486.922 181.776 487.306 182.508 487.39 182.976L488.878 182.52ZM491.393 185.376C491.429 184.836 491.885 184.212 492.713 184.212C493.625 184.212 494.009 184.788 494.033 185.376H491.393ZM494.189 186.912C493.997 187.44 493.589 187.812 492.845 187.812C492.053 187.812 491.393 187.248 491.357 186.468H495.581C495.581 186.444 495.605 186.204 495.605 185.976C495.605 184.08 494.513 182.916 492.689 182.916C491.177 182.916 489.785 184.14 489.785 186.024C489.785 188.016 491.213 189.18 492.833 189.18C494.285 189.18 495.221 188.328 495.521 187.308L494.189 186.912ZM500.462 183.072C500.342 183.06 500.222 183.048 500.09 183.048C499.586 183.048 498.77 183.192 498.41 183.972V183.096H496.862V189H498.458V186.3C498.458 185.028 499.166 184.632 499.982 184.632C500.126 184.632 500.282 184.644 500.462 184.68V183.072ZM507.328 183.096H505.648L504.244 187.056L502.78 183.096H501.028L503.44 189H505.036L507.328 183.096ZM509.287 185.376C509.323 184.836 509.779 184.212 510.607 184.212C511.519 184.212 511.903 184.788 511.927 185.376H509.287ZM512.083 186.912C511.891 187.44 511.483 187.812 510.739 187.812C509.947 187.812 509.287 187.248 509.251 186.468H513.475C513.475 186.444 513.499 186.204 513.499 185.976C513.499 184.08 512.407 182.916 510.583 182.916C509.071 182.916 507.679 184.14 507.679 186.024C507.679 188.016 509.107 189.18 510.727 189.18C512.179 189.18 513.115 188.328 513.415 187.308L512.083 186.912ZM518.356 183.072C518.236 183.06 518.116 183.048 517.984 183.048C517.48 183.048 516.664 183.192 516.304 183.972V183.096H514.756V189H516.352V186.3C516.352 185.028 517.06 184.632 517.876 184.632C518.02 184.632 518.176 184.644 518.356 184.68V183.072Z" fill="black"/>
<path d="M351.5 270.5V238.5H458.5V211.87" stroke="#666666" stroke-miterlimit="10"/>
<path d="M458.5 206.62L462 213.62L458.5 211.87L455 213.62L458.5 206.62Z" fill="#666666" stroke="#666666" stroke-miterlimit="10"/>
<path d="M469.5 231.5H423.5V246.5H469.5V231.5Z" fill="white"/>
<path d="M431.232 241.5V232.992H429.576V238.62L426.036 232.992H423.972V241.5H425.628V235.464L429.492 241.5H431.232ZM434.383 237.24C434.383 235.32 435.727 234.408 437.035 234.408C438.355 234.408 439.699 235.32 439.699 237.24C439.699 239.16 438.355 240.072 437.035 240.072C435.727 240.072 434.383 239.16 434.383 237.24ZM432.667 237.252C432.667 239.988 434.731 241.68 437.035 241.68C439.351 241.68 441.415 239.988 441.415 237.252C441.415 234.504 439.351 232.812 437.035 232.812C434.731 232.812 432.667 234.504 432.667 237.252ZM448.892 234.564V232.992H441.848V234.564H444.536V241.5H446.204V234.564H448.892ZM451.738 241.5V232.992H450.058V241.5H451.738ZM455.347 241.5V238.188H458.647V236.664H455.335V234.564H459.055V232.992H453.679V241.5H455.347ZM462.635 237.924V241.5H464.291V237.924L467.291 232.992H465.431L463.523 236.364L461.615 232.992H459.671L462.635 237.924Z" fill="black"/>
<path d="M531.7 40.5H385.3C384.306 40.5 383.5 41.3059 383.5 42.3V83.7C383.5 84.6941 384.306 85.5 385.3 85.5H531.7C532.694 85.5 533.5 84.6941 533.5 83.7V42.3C533.5 41.3059 532.694 40.5 531.7 40.5Z" fill="#FFF9F2" stroke="#D79B00" stroke-dasharray="3 3"/>
<path d="M435.328 69V60.492H433.66V63.912H429.952V60.492H428.296V69H429.952V65.472H433.66V69H435.328ZM436.769 64.752C436.769 67.488 438.833 69.18 441.137 69.18C441.929 69.18 442.697 68.976 443.357 68.604L444.401 69.756L445.493 68.82L444.473 67.692C445.121 66.948 445.517 65.952 445.517 64.752C445.517 62.004 443.453 60.312 441.137 60.312C438.833 60.312 436.769 62.004 436.769 64.752ZM438.485 64.74C438.485 62.82 439.829 61.908 441.137 61.908C442.457 61.908 443.801 62.82 443.801 64.74C443.801 65.436 443.621 66 443.333 66.432L442.001 64.944L440.897 65.892L442.229 67.356C441.893 67.5 441.509 67.572 441.137 67.572C439.829 67.572 438.485 66.66 438.485 64.74ZM452.368 66.144V64.728H448.888V66.144H452.368ZM459.425 69.192C461.249 69.192 462.701 68.076 462.701 65.988V60.492H461.045V65.868C461.045 66.984 460.433 67.572 459.425 67.572C458.441 67.572 457.817 66.984 457.817 65.868V60.492H456.161V65.988C456.161 68.076 457.613 69.192 459.425 69.192ZM463.907 67.356C463.979 68.028 464.591 69.18 466.367 69.18C467.915 69.18 468.659 68.196 468.659 67.236C468.659 66.372 468.071 65.664 466.907 65.424L466.067 65.244C465.743 65.184 465.527 65.004 465.527 64.716C465.527 64.38 465.863 64.128 466.283 64.128C466.955 64.128 467.207 64.572 467.255 64.92L468.587 64.62C468.515 63.984 467.951 62.916 466.271 62.916C464.999 62.916 464.063 63.792 464.063 64.848C464.063 65.676 464.579 66.36 465.719 66.612L466.499 66.792C466.955 66.888 467.135 67.104 467.135 67.368C467.135 67.68 466.883 67.956 466.355 67.956C465.659 67.956 465.311 67.524 465.275 67.056L463.907 67.356ZM471.082 65.376C471.118 64.836 471.574 64.212 472.402 64.212C473.314 64.212 473.698 64.788 473.722 65.376H471.082ZM473.878 66.912C473.686 67.44 473.278 67.812 472.534 67.812C471.742 67.812 471.082 67.248 471.046 66.468H475.27C475.27 66.444 475.294 66.204 475.294 65.976C475.294 64.08 474.202 62.916 472.378 62.916C470.866 62.916 469.474 64.14 469.474 66.024C469.474 68.016 470.902 69.18 472.522 69.18C473.974 69.18 474.91 68.328 475.21 67.308L473.878 66.912ZM480.151 63.072C480.031 63.06 479.911 63.048 479.779 63.048C479.275 63.048 478.459 63.192 478.099 63.972V63.096H476.551V69H478.147V66.3C478.147 65.028 478.855 64.632 479.671 64.632C479.815 64.632 479.971 64.644 480.151 64.68V63.072ZM484.324 60.492V69H487.612C489.208 69 490.24 68.004 490.24 66.624C490.24 65.568 489.568 64.812 488.74 64.608C489.448 64.368 489.976 63.66 489.976 62.784C489.976 61.464 489.04 60.492 487.384 60.492H484.324ZM485.956 64.008V61.884H487.12C487.924 61.884 488.344 62.292 488.344 62.94C488.344 63.588 487.888 64.008 487.132 64.008H485.956ZM485.956 67.62V65.376H487.324C488.152 65.376 488.584 65.844 488.584 66.516C488.584 67.2 488.104 67.62 487.3 67.62H485.956Z" fill="black"/>
<path d="M131.5 85.5V154.13" stroke="#666666" stroke-miterlimit="10"/>
<path d="M131.5 159.38L128 152.38L131.5 154.13L135 152.38L131.5 159.38Z" fill="#666666" stroke="#666666" stroke-miterlimit="10"/>
<path d="M167.5 108.5H95.5V123.5H167.5V108.5Z" fill="white"/>
<path d="M97.64 113.868V111.432H98.948C99.776 111.432 100.28 111.9 100.28 112.656C100.28 113.388 99.776 113.868 98.948 113.868H97.64ZM99.152 115.296C100.832 115.296 101.948 114.192 101.948 112.644C101.948 111.108 100.832 109.992 99.152 109.992H95.972V118.5H97.628V115.296H99.152ZM106.441 118.692C108.265 118.692 109.717 117.576 109.717 115.488V109.992H108.061V115.368C108.061 116.484 107.449 117.072 106.441 117.072C105.457 117.072 104.833 116.484 104.833 115.368V109.992H103.177V115.488C103.177 117.576 104.629 118.692 106.441 118.692ZM117.881 111.564V109.992H110.837V111.564H113.525V118.5H115.193V111.564H117.881ZM126.211 118.5H128.059L126.235 115.02C127.351 114.696 128.047 113.796 128.047 112.608C128.047 111.132 126.991 109.992 125.335 109.992H122.011V118.5H123.679V115.224H124.543L126.211 118.5ZM123.679 113.796V111.432H125.023C125.863 111.432 126.355 111.9 126.355 112.62C126.355 113.316 125.863 113.796 125.023 113.796H123.679ZM130.391 114.876C130.427 114.336 130.883 113.712 131.711 113.712C132.623 113.712 133.007 114.288 133.031 114.876H130.391ZM133.187 116.412C132.995 116.94 132.587 117.312 131.843 117.312C131.051 117.312 130.391 116.748 130.355 115.968H134.579C134.579 115.944 134.603 115.704 134.603 115.476C134.603 113.58 133.511 112.416 131.687 112.416C130.175 112.416 128.783 113.64 128.783 115.524C128.783 117.516 130.211 118.68 131.831 118.68C133.283 118.68 134.219 117.828 134.519 116.808L133.187 116.412ZM141.5 120.78V112.596H139.976V113.28C139.808 112.944 139.28 112.452 138.248 112.452C136.532 112.452 135.416 113.808 135.416 115.536C135.416 117.312 136.616 118.644 138.296 118.644C139.076 118.644 139.664 118.356 139.94 117.912V120.78H141.5ZM137.024 115.536C137.024 114.48 137.672 113.88 138.488 113.88C139.304 113.88 139.952 114.48 139.952 115.536C139.952 116.592 139.304 117.216 138.488 117.216C137.672 117.216 137.024 116.592 137.024 115.536ZM147.025 118.5H148.549C148.525 118.296 148.489 117.888 148.489 117.432V112.596H146.893V116.028C146.893 116.712 146.485 117.192 145.777 117.192C145.033 117.192 144.697 116.664 144.697 116.004V112.596H143.101V116.328C143.101 117.612 143.917 118.656 145.345 118.656C145.969 118.656 146.653 118.416 146.977 117.864C146.977 118.104 147.001 118.38 147.025 118.5ZM151.332 114.876C151.368 114.336 151.824 113.712 152.652 113.712C153.564 113.712 153.948 114.288 153.972 114.876H151.332ZM154.128 116.412C153.936 116.94 153.528 117.312 152.784 117.312C151.992 117.312 151.332 116.748 151.296 115.968H155.52C155.52 115.944 155.544 115.704 155.544 115.476C155.544 113.58 154.452 112.416 152.628 112.416C151.116 112.416 149.724 113.64 149.724 115.524C149.724 117.516 151.152 118.68 152.772 118.68C154.224 118.68 155.16 117.828 155.46 116.808L154.128 116.412ZM156.297 116.856C156.369 117.528 156.981 118.68 158.757 118.68C160.305 118.68 161.049 117.696 161.049 116.736C161.049 115.872 160.461 115.164 159.297 114.924L158.457 114.744C158.133 114.684 157.917 114.504 157.917 114.216C157.917 113.88 158.253 113.628 158.673 113.628C159.345 113.628 159.597 114.072 159.645 114.42L160.977 114.12C160.905 113.484 160.341 112.416 158.661 112.416C157.389 112.416 156.453 113.292 156.453 114.348C156.453 115.176 156.969 115.86 158.109 116.112L158.889 116.292C159.345 116.388 159.525 116.604 159.525 116.868C159.525 117.18 159.273 117.456 158.745 117.456C158.049 117.456 157.701 117.024 157.665 116.556L156.297 116.856ZM164.3 110.832H162.86V111.66C162.86 112.188 162.572 112.596 161.948 112.596H161.648V114.012H162.716V116.76C162.716 117.9 163.436 118.584 164.588 118.584C165.056 118.584 165.344 118.5 165.488 118.44V117.12C165.404 117.144 165.188 117.168 164.996 117.168C164.54 117.168 164.3 117 164.3 116.484V114.012H165.488V112.596H164.3V110.832Z" fill="black"/>
<path d="M206.5 205.5V238.5H276.5V264.13" stroke="#666666" stroke-miterlimit="10"/>
<path d="M276.5 269.38L273 262.38L276.5 264.13L280 262.38L276.5 269.38Z" fill="#666666" stroke="#666666" stroke-miterlimit="10"/>
<path d="M234.5 231.5H186.5V246.5H234.5V231.5Z" fill="white"/>
<path d="M190.152 241.692C191.976 241.692 193.428 240.576 193.428 238.488V232.992H191.772V238.368C191.772 239.484 191.16 240.072 190.152 240.072C189.168 240.072 188.544 239.484 188.544 238.368V232.992H186.888V238.488C186.888 240.576 188.34 241.692 190.152 241.692ZM196.96 236.868V234.432H198.268C199.096 234.432 199.6 234.9 199.6 235.656C199.6 236.388 199.096 236.868 198.268 236.868H196.96ZM198.472 238.296C200.152 238.296 201.268 237.192 201.268 235.644C201.268 234.108 200.152 232.992 198.472 232.992H195.292V241.5H196.948V238.296H198.472ZM204.191 239.964V234.528H205.523C206.915 234.528 208.067 235.404 208.067 237.252C208.067 239.1 206.903 239.964 205.511 239.964H204.191ZM205.571 241.5C207.995 241.5 209.783 239.94 209.783 237.252C209.783 234.564 208.007 232.992 205.583 232.992H202.535V241.5H205.571ZM216.58 241.5H218.38L215.14 232.992H213.22L209.956 241.5H211.708L212.416 239.556H215.872L216.58 241.5ZM214.144 234.828L215.32 238.044H212.968L214.144 234.828ZM224.947 234.564V232.992H217.903V234.564H220.591V241.5H222.259V234.564H224.947ZM231.441 241.5V239.94H227.769V237.972H231.093V236.496H227.769V234.552H231.441V232.992H226.113V241.5H231.441Z" fill="black"/>
<path d="M458.5 160.5V91.87" stroke="#666666" stroke-miterlimit="10"/>
<path d="M458.5 86.62L462 93.62L458.5 91.87L455 93.62L458.5 86.62Z" fill="#666666" stroke="#666666" stroke-miterlimit="10"/>
<path d="M483.5 125.5H437.5V140.5H483.5V125.5Z" fill="white"/>
<path d="M445.232 135.5V126.992H443.576V132.62L440.036 126.992H437.972V135.5H439.628V129.464L443.492 135.5H445.232ZM448.383 131.24C448.383 129.32 449.727 128.408 451.035 128.408C452.355 128.408 453.699 129.32 453.699 131.24C453.699 133.16 452.355 134.072 451.035 134.072C449.727 134.072 448.383 133.16 448.383 131.24ZM446.667 131.252C446.667 133.988 448.731 135.68 451.035 135.68C453.351 135.68 455.415 133.988 455.415 131.252C455.415 128.504 453.351 126.812 451.035 126.812C448.731 126.812 446.667 128.504 446.667 131.252ZM462.892 128.564V126.992H455.848V128.564H458.536V135.5H460.204V128.564H462.892ZM465.738 135.5V126.992H464.058V135.5H465.738ZM469.347 135.5V132.188H472.647V130.664H469.335V128.564H473.055V126.992H467.679V135.5H469.347ZM476.635 131.924V135.5H478.291V131.924L481.291 126.992H479.431L477.523 130.364L475.615 126.992H473.671L476.635 131.924Z" fill="black"/>
<path d="M421.5 160.5V123.5H206.5V91.87" stroke="#666666" stroke-miterlimit="10"/>
<path d="M206.5 86.62L210 93.62L206.5 91.87L203 93.62L206.5 86.62Z" fill="#666666" stroke="#666666" stroke-miterlimit="10"/>
<path d="M371.5 116.5H325.5V131.5H371.5V116.5Z" fill="white"/>
<path d="M333.232 126.5V117.992H331.576V123.62L328.036 117.992H325.972V126.5H327.628V120.464L331.492 126.5H333.232ZM336.383 122.24C336.383 120.32 337.727 119.408 339.035 119.408C340.355 119.408 341.699 120.32 341.699 122.24C341.699 124.16 340.355 125.072 339.035 125.072C337.727 125.072 336.383 124.16 336.383 122.24ZM334.667 122.252C334.667 124.988 336.731 126.68 339.035 126.68C341.351 126.68 343.415 124.988 343.415 122.252C343.415 119.504 341.351 117.812 339.035 117.812C336.731 117.812 334.667 119.504 334.667 122.252ZM350.892 119.564V117.992H343.848V119.564H346.536V126.5H348.204V119.564H350.892ZM353.738 126.5V117.992H352.058V126.5H353.738ZM357.347 126.5V123.188H360.647V121.664H357.335V119.564H361.055V117.992H355.679V126.5H357.347ZM364.635 122.924V126.5H366.291V122.924L369.291 117.992H367.431L365.523 121.364L363.615 117.992H361.671L364.635 122.924Z" fill="black"/>
</svg>
