<svg width="631" height="361" viewBox="0 0 631 361" fill="none" xmlns="http://www.w3.org/2000/svg">
<path d="M630.5 0.5H0.5V360.5H630.5V0.5Z" fill="white" stroke="#B0B0B0"/>
<path d="M241.7 40.5H95.3C94.3059 40.5 93.5 41.3059 93.5 42.3V83.7C93.5 84.6941 94.3059 85.5 95.3 85.5H241.7C242.694 85.5 243.5 84.6941 243.5 83.7V42.3C243.5 41.3059 242.694 40.5 241.7 40.5Z" fill="#FFF9F2" stroke="#D79B00" stroke-dasharray="3 3"/>
<path d="M133.004 69V60.492H131.336V63.912H127.628V60.492H125.972V69H127.628V65.472H131.336V69H133.004ZM134.445 64.752C134.445 67.488 136.509 69.18 138.813 69.18C139.605 69.18 140.373 68.976 141.033 68.604L142.077 69.756L143.169 68.82L142.149 67.692C142.797 66.948 143.193 65.952 143.193 64.752C143.193 62.004 141.129 60.312 138.813 60.312C136.509 60.312 134.445 62.004 134.445 64.752ZM136.161 64.74C136.161 62.82 137.505 61.908 138.813 61.908C140.133 61.908 141.477 62.82 141.477 64.74C141.477 65.436 141.297 66 141.009 66.432L139.677 64.944L138.573 65.892L139.905 67.356C139.569 67.5 139.185 67.572 138.813 67.572C137.505 67.572 136.161 66.66 136.161 64.74ZM144.193 66.072L149.353 68.664V67.164L145.801 65.448L149.353 63.732V62.256L144.193 64.86V66.072ZM152.138 69V68.28C152.45 68.784 153.074 69.144 153.89 69.144C155.57 69.144 156.674 67.812 156.674 66.024C156.674 64.272 155.678 62.94 153.95 62.94C153.074 62.94 152.426 63.324 152.162 63.744V60.312H150.59V69H152.138ZM155.078 66.036C155.078 67.116 154.43 67.716 153.614 67.716C152.81 67.716 152.138 67.104 152.138 66.036C152.138 64.956 152.81 64.368 153.614 64.368C154.43 64.368 155.078 64.956 155.078 66.036ZM161.538 63.072C161.418 63.06 161.298 63.048 161.166 63.048C160.662 63.048 159.846 63.192 159.486 63.972V63.096H157.938V69H159.534V66.3C159.534 65.028 160.242 64.632 161.058 64.632C161.202 64.632 161.358 64.644 161.538 64.68V63.072ZM167.333 60.384H165.881L161.633 69.108H163.073L167.333 60.384ZM172.872 64.86L167.712 62.256V63.756L171.264 65.472L167.712 67.188V68.664L172.872 66.06V64.86ZM177.422 69.192C179.246 69.192 180.698 68.076 180.698 65.988V60.492H179.042V65.868C179.042 66.984 178.43 67.572 177.422 67.572C176.438 67.572 175.814 66.984 175.814 65.868V60.492H174.158V65.988C174.158 68.076 175.61 69.192 177.422 69.192ZM181.903 67.356C181.975 68.028 182.587 69.18 184.363 69.18C185.911 69.18 186.655 68.196 186.655 67.236C186.655 66.372 186.067 65.664 184.903 65.424L184.063 65.244C183.739 65.184 183.523 65.004 183.523 64.716C183.523 64.38 183.859 64.128 184.279 64.128C184.951 64.128 185.203 64.572 185.251 64.92L186.583 64.62C186.511 63.984 185.947 62.916 184.267 62.916C182.995 62.916 182.059 63.792 182.059 64.848C182.059 65.676 182.575 66.36 183.715 66.612L184.495 66.792C184.951 66.888 185.131 67.104 185.131 67.368C185.131 67.68 184.879 67.956 184.351 67.956C183.655 67.956 183.307 67.524 183.271 67.056L181.903 67.356ZM189.079 65.376C189.115 64.836 189.571 64.212 190.399 64.212C191.311 64.212 191.695 64.788 191.719 65.376H189.079ZM191.875 66.912C191.683 67.44 191.275 67.812 190.531 67.812C189.739 67.812 189.079 67.248 189.043 66.468H193.267C193.267 66.444 193.291 66.204 193.291 65.976C193.291 64.08 192.199 62.916 190.375 62.916C188.863 62.916 187.471 64.14 187.471 66.024C187.471 68.016 188.899 69.18 190.519 69.18C191.971 69.18 192.907 68.328 193.207 67.308L191.875 66.912ZM198.147 63.072C198.027 63.06 197.907 63.048 197.775 63.048C197.271 63.048 196.455 63.192 196.095 63.972V63.096H194.547V69H196.143V66.3C196.143 65.028 196.851 64.632 197.667 64.632C197.811 64.632 197.967 64.644 198.147 64.68V63.072ZM208.092 69H209.892L206.652 60.492H204.732L201.468 69H203.22L203.928 67.056H207.384L208.092 69ZM205.656 62.328L206.832 65.544H204.48L205.656 62.328Z" fill="black"/>
<path d="M386.7 270.5H240.3C239.306 270.5 238.5 271.306 238.5 272.3V313.7C238.5 314.694 239.306 315.5 240.3 315.5H386.7C387.694 315.5 388.5 314.694 388.5 313.7V272.3C388.5 271.306 387.694 270.5 386.7 270.5Z" fill="#FFF9F2" stroke="#D79B00" stroke-dasharray="3 3"/>
<path d="M292.64 294.368V291.932H293.948C294.776 291.932 295.28 292.4 295.28 293.156C295.28 293.888 294.776 294.368 293.948 294.368H292.64ZM294.152 295.796C295.832 295.796 296.948 294.692 296.948 293.144C296.948 291.608 295.832 290.492 294.152 290.492H290.972V299H292.628V295.796H294.152ZM300.406 297.728C299.626 297.728 298.906 297.152 298.906 296.048C298.906 294.932 299.626 294.368 300.406 294.368C301.186 294.368 301.906 294.932 301.906 296.048C301.906 297.164 301.186 297.728 300.406 297.728ZM300.406 292.916C298.642 292.916 297.31 294.224 297.31 296.048C297.31 297.86 298.642 299.18 300.406 299.18C302.17 299.18 303.502 297.86 303.502 296.048C303.502 294.224 302.17 292.916 300.406 292.916ZM304.258 297.356C304.33 298.028 304.942 299.18 306.718 299.18C308.266 299.18 309.01 298.196 309.01 297.236C309.01 296.372 308.422 295.664 307.258 295.424L306.418 295.244C306.094 295.184 305.878 295.004 305.878 294.716C305.878 294.38 306.214 294.128 306.634 294.128C307.306 294.128 307.558 294.572 307.606 294.92L308.938 294.62C308.866 293.984 308.302 292.916 306.622 292.916C305.35 292.916 304.414 293.792 304.414 294.848C304.414 295.676 304.93 296.36 306.07 296.612L306.85 296.792C307.306 296.888 307.486 297.104 307.486 297.368C307.486 297.68 307.234 297.956 306.706 297.956C306.01 297.956 305.662 297.524 305.626 297.056L304.258 297.356ZM312.261 291.332H310.821V292.16C310.821 292.688 310.533 293.096 309.909 293.096H309.609V294.512H310.677V297.26C310.677 298.4 311.397 299.084 312.549 299.084C313.017 299.084 313.305 299 313.449 298.94V297.62C313.365 297.644 313.149 297.668 312.957 297.668C312.501 297.668 312.261 297.5 312.261 296.984V294.512H313.449V293.096H312.261V291.332ZM314.327 299.324C314.495 300.452 315.575 301.46 317.195 301.46C319.415 301.46 320.291 299.984 320.291 298.364V293.096H318.755V293.792C318.551 293.396 318.011 292.988 317.075 292.988C315.455 292.988 314.327 294.308 314.327 295.868C314.327 297.524 315.503 298.736 317.075 298.736C317.927 298.736 318.479 298.364 318.719 297.98V298.412C318.719 299.552 318.155 300.056 317.147 300.056C316.391 300.056 315.875 299.588 315.767 298.94L314.327 299.324ZM317.351 297.368C316.523 297.368 315.935 296.792 315.935 295.868C315.935 294.956 316.559 294.38 317.351 294.38C318.119 294.38 318.743 294.956 318.743 295.868C318.743 296.78 318.167 297.368 317.351 297.368ZM325.507 293.072C325.387 293.06 325.267 293.048 325.135 293.048C324.631 293.048 323.815 293.192 323.455 293.972V293.096H321.907V299H323.503V296.3C323.503 295.028 324.211 294.632 325.027 294.632C325.171 294.632 325.327 294.644 325.507 294.68V293.072ZM327.735 295.376C327.771 294.836 328.227 294.212 329.055 294.212C329.967 294.212 330.351 294.788 330.375 295.376H327.735ZM330.531 296.912C330.339 297.44 329.931 297.812 329.187 297.812C328.395 297.812 327.735 297.248 327.699 296.468H331.923C331.923 296.444 331.947 296.204 331.947 295.976C331.947 294.08 330.855 292.916 329.031 292.916C327.519 292.916 326.127 294.14 326.127 296.024C326.127 298.016 327.555 299.18 329.175 299.18C330.627 299.18 331.563 298.328 331.863 297.308L330.531 296.912ZM332.7 297.356C332.772 298.028 333.384 299.18 335.16 299.18C336.708 299.18 337.452 298.196 337.452 297.236C337.452 296.372 336.864 295.664 335.7 295.424L334.86 295.244C334.536 295.184 334.32 295.004 334.32 294.716C334.32 294.38 334.656 294.128 335.076 294.128C335.748 294.128 336 294.572 336.048 294.92L337.38 294.62C337.308 293.984 336.744 292.916 335.064 292.916C333.792 292.916 332.856 293.792 332.856 294.848C332.856 295.676 333.372 296.36 334.512 296.612L335.292 296.792C335.748 296.888 335.928 297.104 335.928 297.368C335.928 297.68 335.676 297.956 335.148 297.956C334.452 297.956 334.104 297.524 334.068 297.056L332.7 297.356Z" fill="black"/>
<path d="M241.7 160.5H95.3C94.3059 160.5 93.5 161.306 93.5 162.3V203.7C93.5 204.694 94.3059 205.5 95.3 205.5H241.7C242.694 205.5 243.5 204.694 243.5 203.7V162.3C243.5 161.306 242.694 160.5 241.7 160.5Z" fill="#FFF9F2" stroke="#D79B00" stroke-dasharray="3 3"/>
<path d="M140.14 184.368V181.932H141.448C142.276 181.932 142.78 182.4 142.78 183.156C142.78 183.888 142.276 184.368 141.448 184.368H140.14ZM141.652 185.796C143.332 185.796 144.448 184.692 144.448 183.144C144.448 181.608 143.332 180.492 141.652 180.492H138.472V189H140.128V185.796H141.652ZM147.906 187.728C147.126 187.728 146.406 187.152 146.406 186.048C146.406 184.932 147.126 184.368 147.906 184.368C148.686 184.368 149.406 184.932 149.406 186.048C149.406 187.164 148.686 187.728 147.906 187.728ZM147.906 182.916C146.142 182.916 144.81 184.224 144.81 186.048C144.81 187.86 146.142 189.18 147.906 189.18C149.67 189.18 151.002 187.86 151.002 186.048C151.002 184.224 149.67 182.916 147.906 182.916ZM151.758 187.356C151.83 188.028 152.442 189.18 154.218 189.18C155.766 189.18 156.51 188.196 156.51 187.236C156.51 186.372 155.922 185.664 154.758 185.424L153.918 185.244C153.594 185.184 153.378 185.004 153.378 184.716C153.378 184.38 153.714 184.128 154.134 184.128C154.806 184.128 155.058 184.572 155.106 184.92L156.438 184.62C156.366 183.984 155.802 182.916 154.122 182.916C152.85 182.916 151.914 183.792 151.914 184.848C151.914 185.676 152.43 186.36 153.57 186.612L154.35 186.792C154.806 186.888 154.986 187.104 154.986 187.368C154.986 187.68 154.734 187.956 154.206 187.956C153.51 187.956 153.162 187.524 153.126 187.056L151.758 187.356ZM159.761 181.332H158.321V182.16C158.321 182.688 158.033 183.096 157.409 183.096H157.109V184.512H158.177V187.26C158.177 188.4 158.897 189.084 160.049 189.084C160.517 189.084 160.805 189 160.949 188.94V187.62C160.865 187.644 160.649 187.668 160.457 187.668C160.001 187.668 159.761 187.5 159.761 186.984V184.512H160.949V183.096H159.761V181.332ZM161.827 189.324C161.995 190.452 163.075 191.46 164.695 191.46C166.915 191.46 167.791 189.984 167.791 188.364V183.096H166.255V183.792C166.051 183.396 165.511 182.988 164.575 182.988C162.955 182.988 161.827 184.308 161.827 185.868C161.827 187.524 163.003 188.736 164.575 188.736C165.427 188.736 165.979 188.364 166.219 187.98V188.412C166.219 189.552 165.655 190.056 164.647 190.056C163.891 190.056 163.375 189.588 163.267 188.94L161.827 189.324ZM164.851 187.368C164.023 187.368 163.435 186.792 163.435 185.868C163.435 184.956 164.059 184.38 164.851 184.38C165.619 184.38 166.243 184.956 166.243 185.868C166.243 186.78 165.667 187.368 164.851 187.368ZM173.727 189H175.575L173.751 185.52C174.867 185.196 175.563 184.296 175.563 183.108C175.563 181.632 174.507 180.492 172.851 180.492H169.527V189H171.195V185.724H172.059L173.727 189ZM171.195 184.296V181.932H172.539C173.379 181.932 173.871 182.4 173.871 183.12C173.871 183.816 173.379 184.296 172.539 184.296H171.195ZM182.355 189V187.44H178.683V185.472H182.007V183.996H178.683V182.052H182.355V180.492H177.027V189H182.355ZM189.735 182.52C189.543 181.56 188.751 180.312 186.687 180.312C185.079 180.312 183.723 181.464 183.723 182.976C183.723 184.26 184.599 185.136 185.955 185.412L187.143 185.652C187.803 185.784 188.175 186.168 188.175 186.66C188.175 187.26 187.683 187.704 186.795 187.704C185.595 187.704 185.007 186.948 184.935 186.108L183.399 186.516C183.531 187.728 184.527 189.18 186.783 189.18C188.763 189.18 189.855 187.86 189.855 186.552C189.855 185.352 189.027 184.344 187.479 184.044L186.291 183.816C185.667 183.696 185.367 183.324 185.367 182.856C185.367 182.292 185.895 181.776 186.699 181.776C187.779 181.776 188.163 182.508 188.247 182.976L189.735 182.52ZM197.494 182.064V180.492H190.45V182.064H193.138V189H194.806V182.064H197.494Z" fill="black"/>
<path d="M531.7 160.5H385.3C384.306 160.5 383.5 161.306 383.5 162.3V203.7C383.5 204.694 384.306 205.5 385.3 205.5H531.7C532.694 205.5 533.5 204.694 533.5 203.7V162.3C533.5 161.306 532.694 160.5 531.7 160.5Z" fill="#FFF9F2" stroke="#D79B00" stroke-dasharray="3 3"/>
<path d="M389.64 184.368V181.932H390.948C391.776 181.932 392.28 182.4 392.28 183.156C392.28 183.888 391.776 184.368 390.948 184.368H389.64ZM391.152 185.796C392.832 185.796 393.948 184.692 393.948 183.144C393.948 181.608 392.832 180.492 391.152 180.492H387.972V189H389.628V185.796H391.152ZM396.643 185.532C396.679 184.884 397.075 184.38 397.747 184.38C398.515 184.38 398.839 184.896 398.839 185.556V189H400.435V185.28C400.435 183.984 399.739 182.94 398.239 182.94C397.675 182.94 397.027 183.132 396.643 183.588V180.312H395.047V189H396.643V185.532ZM404.707 187.728C403.927 187.728 403.207 187.152 403.207 186.048C403.207 184.932 403.927 184.368 404.707 184.368C405.487 184.368 406.207 184.932 406.207 186.048C406.207 187.164 405.487 187.728 404.707 187.728ZM404.707 182.916C402.943 182.916 401.611 184.224 401.611 186.048C401.611 187.86 402.943 189.18 404.707 189.18C406.471 189.18 407.803 187.86 407.803 186.048C407.803 184.224 406.471 182.916 404.707 182.916ZM410.227 185.376C410.263 184.836 410.719 184.212 411.547 184.212C412.459 184.212 412.843 184.788 412.867 185.376H410.227ZM413.023 186.912C412.831 187.44 412.423 187.812 411.679 187.812C410.887 187.812 410.227 187.248 410.191 186.468H414.415C414.415 186.444 414.439 186.204 414.439 185.976C414.439 184.08 413.347 182.916 411.523 182.916C410.011 182.916 408.619 184.14 408.619 186.024C408.619 188.016 410.047 189.18 411.667 189.18C413.119 189.18 414.055 188.328 414.355 187.308L413.023 186.912ZM417.292 185.604C417.292 184.92 417.7 184.38 418.396 184.38C419.164 184.38 419.488 184.896 419.488 185.556V189H421.084V185.28C421.084 183.984 420.412 182.94 418.948 182.94C418.312 182.94 417.604 183.216 417.244 183.828V183.096H415.696V189H417.292V185.604ZM424.3 189V183.096H422.704V189H424.3ZM422.512 181.164C422.512 181.692 422.956 182.136 423.496 182.136C424.048 182.136 424.48 181.692 424.48 181.164C424.48 180.612 424.048 180.168 423.496 180.168C422.956 180.168 422.512 180.612 422.512 181.164ZM425.3 189H427.1C427.304 188.676 428.096 187.512 428.312 187.188L429.548 189H431.42L429.284 185.988L431.348 183.096H429.536L428.372 184.848C428.168 184.524 427.4 183.42 427.196 183.096H425.3L427.4 186.036L425.3 189ZM431.893 186.072L437.053 188.664V187.164L433.501 185.448L437.053 183.732V182.256L431.893 184.86V186.072ZM439.838 189V188.28C440.15 188.784 440.774 189.144 441.59 189.144C443.27 189.144 444.374 187.812 444.374 186.024C444.374 184.272 443.378 182.94 441.65 182.94C440.774 182.94 440.126 183.324 439.862 183.744V180.312H438.29V189H439.838ZM442.778 186.036C442.778 187.116 442.13 187.716 441.314 187.716C440.51 187.716 439.838 187.104 439.838 186.036C439.838 184.956 440.51 184.368 441.314 184.368C442.13 184.368 442.778 184.956 442.778 186.036ZM449.237 183.072C449.117 183.06 448.997 183.048 448.865 183.048C448.361 183.048 447.545 183.192 447.185 183.972V183.096H445.637V189H447.233V186.3C447.233 185.028 447.941 184.632 448.757 184.632C448.901 184.632 449.057 184.644 449.237 184.68V183.072ZM455.032 180.384H453.58L449.332 189.108H450.772L455.032 180.384ZM460.571 184.86L455.411 182.256V183.756L458.963 185.472L455.411 187.188V188.664L460.571 186.06V184.86ZM467.292 189V187.44H463.62V185.472H466.944V183.996H463.62V182.052H467.292V180.492H461.964V189H467.292ZM470.425 189V180.312H468.829V189H470.425ZM473.729 189V183.096H472.133V189H473.729ZM471.941 181.164C471.941 181.692 472.385 182.136 472.925 182.136C473.477 182.136 473.909 181.692 473.909 181.164C473.909 180.612 473.477 180.168 472.925 180.168C472.385 180.168 471.941 180.612 471.941 181.164ZM474.73 189H476.53C476.734 188.676 477.526 187.512 477.742 187.188L478.978 189H480.85L478.714 185.988L480.778 183.096H478.966L477.802 184.848C477.598 184.524 476.83 183.42 476.626 183.096H474.73L476.83 186.036L474.73 189ZM483.421 189V183.096H481.825V189H483.421ZM481.633 181.164C481.633 181.692 482.077 182.136 482.617 182.136C483.169 182.136 483.601 181.692 483.601 181.164C483.601 180.612 483.169 180.168 482.617 180.168C482.077 180.168 481.633 180.612 481.633 181.164ZM488.729 183.072C488.609 183.06 488.489 183.048 488.357 183.048C487.853 183.048 487.037 183.192 486.677 183.972V183.096H485.129V189H486.725V186.3C486.725 185.028 487.433 184.632 488.249 184.632C488.393 184.632 488.549 184.644 488.729 184.68V183.072ZM498.626 182.52C498.434 181.56 497.642 180.312 495.578 180.312C493.97 180.312 492.614 181.464 492.614 182.976C492.614 184.26 493.49 185.136 494.846 185.412L496.034 185.652C496.694 185.784 497.066 186.168 497.066 186.66C497.066 187.26 496.574 187.704 495.686 187.704C494.486 187.704 493.898 186.948 493.826 186.108L492.29 186.516C492.422 187.728 493.418 189.18 495.674 189.18C497.654 189.18 498.746 187.86 498.746 186.552C498.746 185.352 497.918 184.344 496.37 184.044L495.182 183.816C494.558 183.696 494.258 183.324 494.258 182.856C494.258 182.292 494.786 181.776 495.59 181.776C496.67 181.776 497.054 182.508 497.138 182.976L498.626 182.52ZM501.141 185.376C501.177 184.836 501.633 184.212 502.461 184.212C503.373 184.212 503.757 184.788 503.781 185.376H501.141ZM503.937 186.912C503.745 187.44 503.337 187.812 502.593 187.812C501.801 187.812 501.141 187.248 501.105 186.468H505.329C505.329 186.444 505.353 186.204 505.353 185.976C505.353 184.08 504.261 182.916 502.437 182.916C500.925 182.916 499.533 184.14 499.533 186.024C499.533 188.016 500.961 189.18 502.581 189.18C504.033 189.18 504.969 188.328 505.269 187.308L503.937 186.912ZM510.21 183.072C510.09 183.06 509.97 183.048 509.838 183.048C509.334 183.048 508.518 183.192 508.158 183.972V183.096H506.61V189H508.206V186.3C508.206 185.028 508.914 184.632 509.73 184.632C509.874 184.632 510.03 184.644 510.21 184.68V183.072ZM517.076 183.096H515.396L513.992 187.056L512.528 183.096H510.776L513.188 189H514.784L517.076 183.096ZM519.036 185.376C519.072 184.836 519.528 184.212 520.356 184.212C521.268 184.212 521.652 184.788 521.676 185.376H519.036ZM521.832 186.912C521.64 187.44 521.232 187.812 520.488 187.812C519.696 187.812 519.036 187.248 519 186.468H523.224C523.224 186.444 523.248 186.204 523.248 185.976C523.248 184.08 522.156 182.916 520.332 182.916C518.82 182.916 517.428 184.14 517.428 186.024C517.428 188.016 518.856 189.18 520.476 189.18C521.928 189.18 522.864 188.328 523.164 187.308L521.832 186.912ZM528.104 183.072C527.984 183.06 527.864 183.048 527.732 183.048C527.228 183.048 526.412 183.192 526.052 183.972V183.096H524.504V189H526.1V186.3C526.1 185.028 526.808 184.632 527.624 184.632C527.768 184.632 527.924 184.644 528.104 184.68V183.072Z" fill="black"/>
<path d="M351.5 270.5V238.5H458.5V211.87" stroke="#666666" stroke-miterlimit="10"/>
<path d="M458.5 206.62L462 213.62L458.5 211.87L455 213.62L458.5 206.62Z" fill="#666666" stroke="#666666" stroke-miterlimit="10"/>
<path d="M469.5 231.5H423.5V246.5H469.5V231.5Z" fill="white"/>
<path d="M431.232 241.5V232.992H429.576V238.62L426.036 232.992H423.972V241.5H425.628V235.464L429.492 241.5H431.232ZM434.383 237.24C434.383 235.32 435.727 234.408 437.035 234.408C438.355 234.408 439.699 235.32 439.699 237.24C439.699 239.16 438.355 240.072 437.035 240.072C435.727 240.072 434.383 239.16 434.383 237.24ZM432.667 237.252C432.667 239.988 434.731 241.68 437.035 241.68C439.351 241.68 441.415 239.988 441.415 237.252C441.415 234.504 439.351 232.812 437.035 232.812C434.731 232.812 432.667 234.504 432.667 237.252ZM448.892 234.564V232.992H441.848V234.564H444.536V241.5H446.204V234.564H448.892ZM451.738 241.5V232.992H450.058V241.5H451.738ZM455.347 241.5V238.188H458.647V236.664H455.335V234.564H459.055V232.992H453.679V241.5H455.347ZM462.635 237.924V241.5H464.291V237.924L467.291 232.992H465.431L463.523 236.364L461.615 232.992H459.671L462.635 237.924Z" fill="black"/>
<path d="M531.7 40.5H385.3C384.306 40.5 383.5 41.3059 383.5 42.3V83.7C383.5 84.6941 384.306 85.5 385.3 85.5H531.7C532.694 85.5 533.5 84.6941 533.5 83.7V42.3C533.5 41.3059 532.694 40.5 531.7 40.5Z" fill="#FFF9F2" stroke="#D79B00" stroke-dasharray="3 3"/>
<path d="M425.004 69V60.492H423.336V63.912H419.628V60.492H417.972V69H419.628V65.472H423.336V69H425.004ZM426.445 64.752C426.445 67.488 428.509 69.18 430.813 69.18C431.605 69.18 432.373 68.976 433.033 68.604L434.077 69.756L435.169 68.82L434.149 67.692C434.797 66.948 435.193 65.952 435.193 64.752C435.193 62.004 433.129 60.312 430.813 60.312C428.509 60.312 426.445 62.004 426.445 64.752ZM428.161 64.74C428.161 62.82 429.505 61.908 430.813 61.908C432.133 61.908 433.477 62.82 433.477 64.74C433.477 65.436 433.297 66 433.009 66.432L431.677 64.944L430.573 65.892L431.905 67.356C431.569 67.5 431.185 67.572 430.813 67.572C429.505 67.572 428.161 66.66 428.161 64.74ZM436.193 66.072L441.353 68.664V67.164L437.801 65.448L441.353 63.732V62.256L436.193 64.86V66.072ZM444.138 69V68.28C444.45 68.784 445.074 69.144 445.89 69.144C447.57 69.144 448.674 67.812 448.674 66.024C448.674 64.272 447.678 62.94 445.95 62.94C445.074 62.94 444.426 63.324 444.162 63.744V60.312H442.59V69H444.138ZM447.078 66.036C447.078 67.116 446.43 67.716 445.614 67.716C444.81 67.716 444.138 67.104 444.138 66.036C444.138 64.956 444.81 64.368 445.614 64.368C446.43 64.368 447.078 64.956 447.078 66.036ZM453.538 63.072C453.418 63.06 453.298 63.048 453.166 63.048C452.662 63.048 451.846 63.192 451.486 63.972V63.096H449.938V69H451.534V66.3C451.534 65.028 452.242 64.632 453.058 64.632C453.202 64.632 453.358 64.644 453.538 64.68V63.072ZM459.333 60.384H457.881L453.633 69.108H455.073L459.333 60.384ZM464.872 64.86L459.712 62.256V63.756L463.264 65.472L459.712 67.188V68.664L464.872 66.06V64.86ZM469.422 69.192C471.246 69.192 472.698 68.076 472.698 65.988V60.492H471.042V65.868C471.042 66.984 470.43 67.572 469.422 67.572C468.438 67.572 467.814 66.984 467.814 65.868V60.492H466.158V65.988C466.158 68.076 467.61 69.192 469.422 69.192ZM473.903 67.356C473.975 68.028 474.587 69.18 476.363 69.18C477.911 69.18 478.655 68.196 478.655 67.236C478.655 66.372 478.067 65.664 476.903 65.424L476.063 65.244C475.739 65.184 475.523 65.004 475.523 64.716C475.523 64.38 475.859 64.128 476.279 64.128C476.951 64.128 477.203 64.572 477.251 64.92L478.583 64.62C478.511 63.984 477.947 62.916 476.267 62.916C474.995 62.916 474.059 63.792 474.059 64.848C474.059 65.676 474.575 66.36 475.715 66.612L476.495 66.792C476.951 66.888 477.131 67.104 477.131 67.368C477.131 67.68 476.879 67.956 476.351 67.956C475.655 67.956 475.307 67.524 475.271 67.056L473.903 67.356ZM481.079 65.376C481.115 64.836 481.571 64.212 482.399 64.212C483.311 64.212 483.695 64.788 483.719 65.376H481.079ZM483.875 66.912C483.683 67.44 483.275 67.812 482.531 67.812C481.739 67.812 481.079 67.248 481.043 66.468H485.267C485.267 66.444 485.291 66.204 485.291 65.976C485.291 64.08 484.199 62.916 482.375 62.916C480.863 62.916 479.471 64.14 479.471 66.024C479.471 68.016 480.899 69.18 482.519 69.18C483.971 69.18 484.907 68.328 485.207 67.308L483.875 66.912ZM490.147 63.072C490.027 63.06 489.907 63.048 489.775 63.048C489.271 63.048 488.455 63.192 488.095 63.972V63.096H486.547V69H488.143V66.3C488.143 65.028 488.851 64.632 489.667 64.632C489.811 64.632 489.967 64.644 490.147 64.68V63.072ZM494.32 60.492V69H497.608C499.204 69 500.236 68.004 500.236 66.624C500.236 65.568 499.564 64.812 498.736 64.608C499.444 64.368 499.972 63.66 499.972 62.784C499.972 61.464 499.036 60.492 497.38 60.492H494.32ZM495.952 64.008V61.884H497.116C497.92 61.884 498.34 62.292 498.34 62.94C498.34 63.588 497.884 64.008 497.128 64.008H495.952ZM495.952 67.62V65.376H497.32C498.148 65.376 498.58 65.844 498.58 66.516C498.58 67.2 498.1 67.62 497.296 67.62H495.952Z" fill="black"/>
<path d="M131.5 85.5V154.13" stroke="#666666" stroke-miterlimit="10"/>
<path d="M131.5 159.38L128 152.38L131.5 154.13L135 152.38L131.5 159.38Z" fill="#666666" stroke="#666666" stroke-miterlimit="10"/>
<path d="M167.5 108.5H95.5V123.5H167.5V108.5Z" fill="white"/>
<path d="M97.64 113.868V111.432H98.948C99.776 111.432 100.28 111.9 100.28 112.656C100.28 113.388 99.776 113.868 98.948 113.868H97.64ZM99.152 115.296C100.832 115.296 101.948 114.192 101.948 112.644C101.948 111.108 100.832 109.992 99.152 109.992H95.972V118.5H97.628V115.296H99.152ZM106.441 118.692C108.265 118.692 109.717 117.576 109.717 115.488V109.992H108.061V115.368C108.061 116.484 107.449 117.072 106.441 117.072C105.457 117.072 104.833 116.484 104.833 115.368V109.992H103.177V115.488C103.177 117.576 104.629 118.692 106.441 118.692ZM117.881 111.564V109.992H110.837V111.564H113.525V118.5H115.193V111.564H117.881ZM126.211 118.5H128.059L126.235 115.02C127.351 114.696 128.047 113.796 128.047 112.608C128.047 111.132 126.991 109.992 125.335 109.992H122.011V118.5H123.679V115.224H124.543L126.211 118.5ZM123.679 113.796V111.432H125.023C125.863 111.432 126.355 111.9 126.355 112.62C126.355 113.316 125.863 113.796 125.023 113.796H123.679ZM130.391 114.876C130.427 114.336 130.883 113.712 131.711 113.712C132.623 113.712 133.007 114.288 133.031 114.876H130.391ZM133.187 116.412C132.995 116.94 132.587 117.312 131.843 117.312C131.051 117.312 130.391 116.748 130.355 115.968H134.579C134.579 115.944 134.603 115.704 134.603 115.476C134.603 113.58 133.511 112.416 131.687 112.416C130.175 112.416 128.783 113.64 128.783 115.524C128.783 117.516 130.211 118.68 131.831 118.68C133.283 118.68 134.219 117.828 134.519 116.808L133.187 116.412ZM141.5 120.78V112.596H139.976V113.28C139.808 112.944 139.28 112.452 138.248 112.452C136.532 112.452 135.416 113.808 135.416 115.536C135.416 117.312 136.616 118.644 138.296 118.644C139.076 118.644 139.664 118.356 139.94 117.912V120.78H141.5ZM137.024 115.536C137.024 114.48 137.672 113.88 138.488 113.88C139.304 113.88 139.952 114.48 139.952 115.536C139.952 116.592 139.304 117.216 138.488 117.216C137.672 117.216 137.024 116.592 137.024 115.536ZM147.025 118.5H148.549C148.525 118.296 148.489 117.888 148.489 117.432V112.596H146.893V116.028C146.893 116.712 146.485 117.192 145.777 117.192C145.033 117.192 144.697 116.664 144.697 116.004V112.596H143.101V116.328C143.101 117.612 143.917 118.656 145.345 118.656C145.969 118.656 146.653 118.416 146.977 117.864C146.977 118.104 147.001 118.38 147.025 118.5ZM151.332 114.876C151.368 114.336 151.824 113.712 152.652 113.712C153.564 113.712 153.948 114.288 153.972 114.876H151.332ZM154.128 116.412C153.936 116.94 153.528 117.312 152.784 117.312C151.992 117.312 151.332 116.748 151.296 115.968H155.52C155.52 115.944 155.544 115.704 155.544 115.476C155.544 113.58 154.452 112.416 152.628 112.416C151.116 112.416 149.724 113.64 149.724 115.524C149.724 117.516 151.152 118.68 152.772 118.68C154.224 118.68 155.16 117.828 155.46 116.808L154.128 116.412ZM156.297 116.856C156.369 117.528 156.981 118.68 158.757 118.68C160.305 118.68 161.049 117.696 161.049 116.736C161.049 115.872 160.461 115.164 159.297 114.924L158.457 114.744C158.133 114.684 157.917 114.504 157.917 114.216C157.917 113.88 158.253 113.628 158.673 113.628C159.345 113.628 159.597 114.072 159.645 114.42L160.977 114.12C160.905 113.484 160.341 112.416 158.661 112.416C157.389 112.416 156.453 113.292 156.453 114.348C156.453 115.176 156.969 115.86 158.109 116.112L158.889 116.292C159.345 116.388 159.525 116.604 159.525 116.868C159.525 117.18 159.273 117.456 158.745 117.456C158.049 117.456 157.701 117.024 157.665 116.556L156.297 116.856ZM164.3 110.832H162.86V111.66C162.86 112.188 162.572 112.596 161.948 112.596H161.648V114.012H162.716V116.76C162.716 117.9 163.436 118.584 164.588 118.584C165.056 118.584 165.344 118.5 165.488 118.44V117.12C165.404 117.144 165.188 117.168 164.996 117.168C164.54 117.168 164.3 117 164.3 116.484V114.012H165.488V112.596H164.3V110.832Z" fill="black"/>
<path d="M206.5 205.5V238.5H276.5V264.13" stroke="#666666" stroke-miterlimit="10"/>
<path d="M276.5 269.38L273 262.38L276.5 264.13L280 262.38L276.5 269.38Z" fill="#666666" stroke="#666666" stroke-miterlimit="10"/>
<path d="M234.5 231.5H186.5V246.5H234.5V231.5Z" fill="white"/>
<path d="M190.152 241.692C191.976 241.692 193.428 240.576 193.428 238.488V232.992H191.772V238.368C191.772 239.484 191.16 240.072 190.152 240.072C189.168 240.072 188.544 239.484 188.544 238.368V232.992H186.888V238.488C186.888 240.576 188.34 241.692 190.152 241.692ZM196.96 236.868V234.432H198.268C199.096 234.432 199.6 234.9 199.6 235.656C199.6 236.388 199.096 236.868 198.268 236.868H196.96ZM198.472 238.296C200.152 238.296 201.268 237.192 201.268 235.644C201.268 234.108 200.152 232.992 198.472 232.992H195.292V241.5H196.948V238.296H198.472ZM204.191 239.964V234.528H205.523C206.915 234.528 208.067 235.404 208.067 237.252C208.067 239.1 206.903 239.964 205.511 239.964H204.191ZM205.571 241.5C207.995 241.5 209.783 239.94 209.783 237.252C209.783 234.564 208.007 232.992 205.583 232.992H202.535V241.5H205.571ZM216.58 241.5H218.38L215.14 232.992H213.22L209.956 241.5H211.708L212.416 239.556H215.872L216.58 241.5ZM214.144 234.828L215.32 238.044H212.968L214.144 234.828ZM224.947 234.564V232.992H217.903V234.564H220.591V241.5H222.259V234.564H224.947ZM231.441 241.5V239.94H227.769V237.972H231.093V236.496H227.769V234.552H231.441V232.992H226.113V241.5H231.441Z" fill="black"/>
<path d="M458.5 160.5V91.87" stroke="#666666" stroke-miterlimit="10"/>
<path d="M458.5 86.62L462 93.62L458.5 91.87L455 93.62L458.5 86.62Z" fill="#666666" stroke="#666666" stroke-miterlimit="10"/>
<path d="M483.5 125.5H437.5V140.5H483.5V125.5Z" fill="white"/>
<path d="M445.232 135.5V126.992H443.576V132.62L440.036 126.992H437.972V135.5H439.628V129.464L443.492 135.5H445.232ZM448.383 131.24C448.383 129.32 449.727 128.408 451.035 128.408C452.355 128.408 453.699 129.32 453.699 131.24C453.699 133.16 452.355 134.072 451.035 134.072C449.727 134.072 448.383 133.16 448.383 131.24ZM446.667 131.252C446.667 133.988 448.731 135.68 451.035 135.68C453.351 135.68 455.415 133.988 455.415 131.252C455.415 128.504 453.351 126.812 451.035 126.812C448.731 126.812 446.667 128.504 446.667 131.252ZM462.892 128.564V126.992H455.848V128.564H458.536V135.5H460.204V128.564H462.892ZM465.738 135.5V126.992H464.058V135.5H465.738ZM469.347 135.5V132.188H472.647V130.664H469.335V128.564H473.055V126.992H467.679V135.5H469.347ZM476.635 131.924V135.5H478.291V131.924L481.291 126.992H479.431L477.523 130.364L475.615 126.992H473.671L476.635 131.924Z" fill="black"/>
<path d="M421.5 160.5V123.5H206.5V91.87" stroke="#666666" stroke-miterlimit="10"/>
<path d="M206.5 86.62L210 93.62L206.5 91.87L203 93.62L206.5 86.62Z" fill="#666666" stroke="#666666" stroke-miterlimit="10"/>
<path d="M371.5 116.5H325.5V131.5H371.5V116.5Z" fill="white"/>
<path d="M333.232 126.5V117.992H331.576V123.62L328.036 117.992H325.972V126.5H327.628V120.464L331.492 126.5H333.232ZM336.383 122.24C336.383 120.32 337.727 119.408 339.035 119.408C340.355 119.408 341.699 120.32 341.699 122.24C341.699 124.16 340.355 125.072 339.035 125.072C337.727 125.072 336.383 124.16 336.383 122.24ZM334.667 122.252C334.667 124.988 336.731 126.68 339.035 126.68C341.351 126.68 343.415 124.988 343.415 122.252C343.415 119.504 341.351 117.812 339.035 117.812C336.731 117.812 334.667 119.504 334.667 122.252ZM350.892 119.564V117.992H343.848V119.564H346.536V126.5H348.204V119.564H350.892ZM353.738 126.5V117.992H352.058V126.5H353.738ZM357.347 126.5V123.188H360.647V121.664H357.335V119.564H361.055V117.992H355.679V126.5H357.347ZM364.635 122.924V126.5H366.291V122.924L369.291 117.992H367.431L365.523 121.364L363.615 117.992H361.671L364.635 122.924Z" fill="black"/>
</svg>
